<?xml version="1.0" encoding="utf-8"?>
<!-- Generator: Adobe Illustrator 23.0.2, SVG Export Plug-In . SVG Version: 6.00 Build 0)  -->
<svg version="1.1" id="Capa_1" xmlns="http://www.w3.org/2000/svg" xmlns:xlink="http://www.w3.org/1999/xlink" x="0px" y="0px"
	 viewBox="0 0 417 107" style="enable-background:new 0 0 417 107;" xml:space="preserve">
<style type="text/css">
	.st0{display:none;}
	.st1{display:inline;fill-rule:evenodd;clip-rule:evenodd;fill:#A2DEAF;}
	.st2{display:inline;fill-rule:evenodd;clip-rule:evenodd;fill:#114E4E;}
	.st3{display:inline;fill-rule:evenodd;clip-rule:evenodd;fill:#FFFFFF;}
	.st4{display:inline;fill-rule:evenodd;clip-rule:evenodd;fill:#E17334;}
	.st5{fill-rule:evenodd;clip-rule:evenodd;fill:#A2DEAF;}
	.st6{fill-rule:evenodd;clip-rule:evenodd;fill:#114E4E;}
	.st7{display:inline;fill:#FFFFFF;}
	.st8{display:inline;fill:#F9F9F9;}
	.st9{display:inline;fill:#F2F2F2;}
	.st10{display:inline;fill:#ECECEC;}
	.st11{display:inline;fill:#E6E6E6;}
	.st12{display:inline;fill:#DFDFDF;}
	.st13{display:inline;fill:#D9D9D9;}
	.st14{display:inline;fill:#D3D3D3;}
	.st15{display:inline;fill:#CCCCCC;}
	.st16{display:inline;fill:#C6C6C6;}
	.st17{display:inline;fill:#C0C0C0;}
	.st18{display:inline;fill:#BABABA;}
	.st19{display:inline;fill:#B3B3B3;}
	.st20{display:inline;fill:#ADADAD;}
	.st21{display:inline;fill:#A7A7A7;}
	.st22{display:inline;fill:#A0A0A0;}
	.st23{display:inline;fill:#9A9A9A;}
	.st24{display:inline;fill:#949494;}
	.st25{display:inline;fill:#8D8D8D;}
	.st26{display:inline;fill:#878787;}
	.st27{display:inline;fill:#818181;}
	.st28{display:inline;fill:#7A7A7A;}
	.st29{display:inline;}
	.st30{fill:#9999CC;}
	.st31{fill:#9D9D9D;}
	.st32{fill:#FFFFFF;}
	.st33{fill:#FABE0C;}
	.st34{fill:#66CCFF;}
	.st35{fill:#64C450;}
	.st36{fill:url(#SVGID_1_);}
	.st37{fill:url(#SVGID_2_);}
	.st38{fill:url(#SVGID_3_);}
	.st39{fill:url(#SVGID_4_);}
</style>
<title>Tarjetas molonas</title>
<desc>Created with Sketch.</desc>
<g>
	<g transform="translate(-177.000000, -351.000000)">
		<g id="Group-4" transform="translate(175.000000, 348.000000)">
			<g id="Tarjetas-molonas">
				<g id="Group-2">
					
						<g id="Group" transform="translate(63.191223, 54.437060) rotate(-10.000000) translate(-63.191223, -54.437060) translate(7.318166, 11.294573)" class="st0">
						<path id="Path" class="st1" d="M101.3,2.3c2.9,0,5.3,1,7.3,3c2,2,3,4.4,3,7.3l0,62c0,2.9-1,5.3-3,7.3c-2,2-4.4,3-7.3,3
							l-89.5,0c-2.9,0-5.3-1-7.3-3s-3-4.4-3-7.3l0-62c0-2.9,1-5.3,3-7.3s4.4-3,7.3-3L101.3,2.3z"/>
						<path id="Path-Copy" class="st2" d="M100.1,0.6c2.9,0,5.3,1,7.3,3c2,2,3,4.4,3,7.3l0,62c0,2.9-1,5.3-3,7.3c-2,2-4.4,3-7.3,3
							l-89.5,0c-2.9,0-5.3-1-7.3-3s-3-4.4-3-7.3l0-62c0-2.9,1-5.3,3-7.3s4.4-3,7.3-3L100.1,0.6z"/>
						<path class="st3" d="M103.6,72.9l0-62c0-1-0.3-1.8-1-2.5c-0.6-0.6-1.5-1-2.5-1l-89.5,0c-1,0-1.8,0.3-2.5,1s-1,1.5-1,2.5l0,62
							c0,1,0.3,1.8,1,2.5c0.6,0.6,1.5,1,2.5,1l89.5,0c1,0,1.8-0.3,2.5-1C103.3,74.8,103.6,73.9,103.6,72.9z"/>
						<path id="Combined-Shape" class="st4" d="M71.7,55.7c-0.7,0-1.3-0.3-1.8-0.8c-0.5-0.5-0.8-1.1-0.8-1.8v-1.7
							c0-0.7,0.3-1.3,0.8-1.8c0.5-0.5,1.1-0.8,1.8-0.8l22.4,0c0.7,0,1.3,0.3,1.8,0.8c0.5,0.5,0.8,1.1,0.8,1.8v1.7
							c0,0.7-0.3,1.3-0.8,1.8c-0.5,0.5-1.1,0.8-1.8,0.8L71.7,55.7z M71.7,42c-0.7,0-1.3-0.3-1.8-0.8c-0.5-0.5-0.8-1.1-0.8-1.8v-1.7
							c0-0.7,0.3-1.3,0.8-1.8c0.5-0.5,1.1-0.8,1.8-0.8l22.4,0c0.7,0,1.3,0.3,1.8,0.8c0.5,0.5,0.8,1.1,0.8,1.8v1.7
							c0,0.7-0.3,1.3-0.8,1.8c-0.5,0.5-1.1,0.8-1.8,0.8L71.7,42z M71.7,28.2c-0.7,0-1.3-0.3-1.8-0.8c-0.5-0.5-0.8-1.1-0.8-1.8v-1.7
							c0-0.7,0.3-1.3,0.8-1.8c0.5-0.5,1.1-0.8,1.8-0.8l22.4,0c0.7,0,1.3,0.3,1.8,0.8c0.5,0.5,0.8,1.1,0.8,1.8v1.7
							c0,0.7-0.3,1.3-0.8,1.8c-0.5,0.5-1.1,0.8-1.8,0.8L71.7,28.2z"/>
						<path class="st1" d="M51.5,42.4c3.7,1.1,6.6,3.4,8.6,6.7c1.4,2.6,2.2,5.2,2.2,8v3c0,2.6-0.9,4.8-2.8,6.7s-4.1,2.8-6.7,2.8
							l-29.3,0c-2.6,0-4.8-0.9-6.7-2.8c-1.9-1.9-2.8-4.1-2.8-6.7l0-3c0-2.7,0.7-5.4,2.2-8c2-3.3,4.9-5.5,8.6-6.7
							c-2.6-3.2-3.9-6.7-3.9-10.8c0-4.7,1.7-8.8,5.1-12.2s7.4-5.1,12.2-5.1s8.8,1.7,12.2,5.1s5.1,7.4,5.1,12.2
							C55.4,35.6,54.1,39.2,51.5,42.4z M38.2,21.3c-2.9,0-5.3,1-7.3,3s-3,4.4-3,7.3c0,2.9,1,5.3,3,7.3c2,2,4.4,3,7.3,3s5.3-1,7.3-3
							c2-2,3-4.4,3-7.3s-1-5.3-3-7.3C43.5,22.3,41,21.3,38.2,21.3z M55.4,60v-3c0-1.9-0.6-3.5-1.7-5.1c-1.1-1.5-2.7-2.5-4.5-3.1
							l-4.5-1.3c-2,0.9-4.2,1.3-6.5,1.3c-2.3,0-4.4-0.4-6.5-1.3l-4.5,1.3c-1.9,0.6-3.4,1.6-4.5,3.1S21,55.1,21,57v3
							c0,0.7,0.3,1.3,0.8,1.8c0.5,0.5,1.1,0.8,1.8,0.8l29.3,0c0.7,0,1.3-0.3,1.8-0.8C55.1,61.3,55.4,60.7,55.4,60z"/>
					</g>
					<path id="Awesome" class="st5" d="M138.2,53.4c-1.4,0-2.6-0.1-3.7-0.3c-1.1-0.2-2-0.8-2.7-1.6s-1.2-2.2-1.2-4
						c0-2.5,0.8-5.9,2.3-10.2s3.5-8.5,6-12.8c-1.9,0.1-3.4,0.4-4.5,0.8c-1.1,0.5-1.8,1.2-2.2,2.1c0.2,0,0.3,0.2,0.5,0.6
						c0.2,0.4,0.3,0.8,0.3,1.2c0,0.7-0.3,1.2-0.9,1.6c-0.6,0.4-1.4,0.6-2.3,0.6c-1.1,0-1.9-0.3-2.5-0.8c-0.6-0.6-1-1.4-1-2.4
						c0-1.3,0.5-2.5,1.5-3.5c1-1.1,2.4-1.9,4.2-2.5c1.8-0.6,3.7-0.9,5.9-0.9c0.8,0,1.8,0.1,2.9,0.2c3.1-4.9,6.4-8.9,9.8-12
						s6.7-4.7,9.9-4.7c1.8,0,3.3,0.3,4.5,0.8l-8.9,41.6H148l4.4-20.5c-1.4-0.6-2.7-1.1-3.8-1.4c-1.2-0.3-2.4-0.5-3.7-0.6
						c-2.2,4.6-3.9,9.4-5.3,14.2c-1.4,4.8-2.1,8.7-2.1,11.6C137.4,51.6,137.7,52.7,138.2,53.4z M156.2,8.5c-1.6,0.9-3.3,2.5-5.1,4.8
						s-3.5,5.2-5.1,8.6c2.7,0.5,5,1.2,6.9,2L156.2,8.5z M169.3,47.3c-1.8,0-3.3-0.6-4.4-1.7c-1.1-1.1-1.7-2.8-1.7-5.1
						c0-0.9,0.2-2.2,0.5-3.7l3.8-18.2h8.1l-4.1,19.2c-0.1,0.5-0.2,0.9-0.2,1.4c0,1.7,0.6,2.5,1.7,2.5c1.1,0,2-0.4,2.7-1.3
						c0.8-0.9,1.4-2.1,1.8-3.6l3.8-18.2h8.1l-4.1,19.2c-0.2,0.9-0.3,1.6-0.3,2c0,1.2,0.6,1.9,1.9,1.9c1.7,0,3.3-1.1,4.8-3.3
						c1.5-2.2,2.7-4.8,3.6-7.8s1.4-5.6,1.4-7.8c-0.1,0.2-0.3,0.3-0.7,0.4c-0.4,0.1-0.8,0.1-1.1,0.1c-0.6,0-1.1-0.3-1.5-0.9
						c-0.4-0.6-0.5-1.3-0.5-2c0-0.9,0.3-1.6,0.9-2.2c0.6-0.6,1.5-0.8,2.6-0.8c1.2,0,2.2,0.5,2.7,1.4c0.6,0.9,0.8,2.1,0.8,3.5
						c0,3.4-0.6,7-1.8,10.9c-1.2,3.9-3,7.2-5.4,9.9c-2.4,2.7-5.4,4.1-9,4.1c-1.8,0-3.4-0.4-4.5-1.2c-1.2-0.8-1.9-2-2.3-3.6
						C175.2,45.7,172.5,47.3,169.3,47.3z M209.2,47.3c-2.8,0-5-0.7-6.5-2.2s-2.3-3.7-2.3-6.8c0-2.6,0.5-5.5,1.5-8.6
						c1-3.1,2.7-5.8,5-8.1c2.3-2.3,5.2-3.4,8.8-3.4c4.1,0,6.2,1.8,6.2,5.4c0,2.1-0.6,4.1-1.8,5.8c-1.2,1.8-2.8,3.2-4.8,4.3
						c-2,1.1-4.1,1.7-6.4,1.8c-0.1,1.1-0.1,1.9-0.1,2.3c0,1.8,0.3,3.1,1,3.8s1.7,1,3.1,1c2,0,3.8-0.5,5.2-1.4c1.5-0.9,3-2.4,4.8-4.3
						h1.9C220.6,43.8,215.4,47.3,209.2,47.3z M209.3,32.8c1.4-0.1,2.7-0.6,4-1.5c1.3-0.9,2.3-2.1,3.1-3.5s1.2-2.9,1.2-4.4
						c0-1.5-0.5-2.3-1.4-2.3c-1.4,0-2.7,1.2-4,3.6C210.8,27.1,209.9,29.8,209.3,32.8z M229.3,47.3c-1.8,0-3.3-0.3-4.6-1
						c-1.2-0.7-2.2-1.6-2.8-2.7c-0.6-1.1-0.9-2.3-0.9-3.5c0-1.2,0.3-2.3,0.9-3.3c0.6-0.9,1.3-1.6,2.1-2c1.5-2.6,2.8-5.3,3.8-8
						c1.1-2.7,2.1-5.6,3.1-8.7l8.4-1.1c0.2,4.8,0.5,10.1,1,15.7c0.2,2.3,0.3,3.9,0.3,4.9c0,0.9-0.1,1.6-0.2,2.2c1.8-1,3.1-2,4.1-2.8
						h2.4c-2.4,2.8-5.3,5.1-8.7,7.1c-1.1,1.2-2.4,2-4,2.6C232.5,47,230.9,47.3,229.3,47.3z M227.5,42.8c1.4,0,2.6-0.4,3.5-1.2
						s1.4-2.2,1.4-4c0-1.1-0.1-2.7-0.3-4.8c-0.4-4.3-0.6-7.2-0.7-8.7c-0.9,3-2.4,6.5-4.6,10.7c0.9,0.5,1.3,1.1,1.3,2
						c0,0.7-0.2,1.4-0.7,1.9c-0.5,0.6-1.1,0.8-1.8,0.8c-0.8,0-1.3-0.2-1.5-0.7c0,1.4,0.3,2.4,0.8,3
						C225.4,42.5,226.2,42.8,227.5,42.8z M252.7,47.1c-2.8,0-5-0.7-6.6-2.2c-1.6-1.4-2.4-3.7-2.4-6.8c0-2.6,0.5-5.4,1.6-8.5
						s2.8-5.8,5.1-8.1s5.3-3.4,8.8-3.4c4.8,0,7.2,3,7.2,9.1v0.1c0.1,0,0.3,0.1,0.6,0.1c1.2,0,2.7-0.3,4.3-1c1.6-0.7,3.1-1.5,4.4-2.4
						l0.5,1.5c-1.1,1.2-2.5,2.2-4.3,3c-1.8,0.8-3.7,1.4-5.7,1.7c-0.3,3.4-1.1,6.4-2.3,9s-2.8,4.5-4.8,5.9
						C257.1,46.5,255,47.1,252.7,47.1z M255,42.1c0.9,0,1.8-0.5,2.7-1.6c0.9-1,1.7-2.5,2.4-4.2c0.7-1.8,1.2-3.8,1.5-6
						c-1-0.2-1.5-1-1.5-2.4c0-1.5,0.6-2.6,1.8-3.1c-0.1-1.2-0.3-2.1-0.6-2.6c-0.3-0.5-0.8-0.7-1.6-0.7c-1.2,0-2.5,0.9-3.6,2.7
						s-2.1,4-2.8,6.5c-0.7,2.5-1.1,4.8-1.1,6.7c0,1.8,0.2,3,0.6,3.6C253.1,41.7,253.9,42.1,255,42.1z M303.7,47.3
						c-2.3,0-4-0.6-5.1-1.8c-1.1-1.2-1.6-2.7-1.6-4.6c0-0.8,0.1-1.7,0.3-2.7s0.4-2,0.6-2.9c0.2-0.9,0.3-1.5,0.4-1.8
						c0.3-1.3,0.6-2.6,0.8-3.9s0.4-2.3,0.4-3.1c0-1.9-0.7-2.9-2-2.9c-1,0-1.8,0.5-2.6,1.4c-0.8,1-1.4,2.2-1.8,3.8l-3.8,18.2h-8.1
						l4.1-19.5c0.1-0.5,0.2-0.9,0.2-1.4c0-1.7-0.6-2.5-1.7-2.5c-1.1,0-2,0.5-2.7,1.4c-0.8,1-1.4,2.2-1.8,3.8l-3.8,18.2h-8.1l6-28.3
						h8.1l-0.6,2.9c1.9-2.2,4.2-3.2,6.9-3.2c3.3,0,5.3,1.6,5.8,4.9c2.1-3.2,4.7-4.8,7.9-4.8c1.9,0,3.5,0.5,4.6,1.6
						c1.1,1.1,1.7,2.7,1.7,4.8c0,1.1-0.1,2.3-0.4,3.6c-0.3,1.3-0.6,3-1.1,4.9c-0.3,1.2-0.6,2.3-0.8,3.4c-0.2,1.1-0.4,2-0.4,2.6
						c0,0.8,0.2,1.3,0.5,1.8c0.3,0.4,0.9,0.6,1.8,0.6c1.1,0,2-0.4,2.7-1.2c0.7-0.8,1.4-2.1,2-3.8h2.4c-1.4,4.1-3,6.9-4.8,8.3
						C307.5,46.6,305.6,47.3,303.7,47.3z M319.8,47.3c-2.8,0-4.9-0.7-6.5-2.2s-2.3-3.7-2.3-6.8c0-2.6,0.5-5.5,1.5-8.6
						c1-3.1,2.7-5.8,5-8.1c2.3-2.3,5.2-3.4,8.8-3.4c4.1,0,6.2,1.8,6.2,5.4c0,2.1-0.6,4.1-1.8,5.8c-1.2,1.8-2.8,3.2-4.8,4.3
						s-4.1,1.7-6.4,1.8c-0.1,0.8-0.1,1.4-0.1,1.7c0,3.1,1.2,4.7,3.5,4.7c1.1,0,2.2-0.3,3.4-0.8c1.2-0.6,2.3-1.3,3.3-2.2
						C328.6,44.5,325.3,47.3,319.8,47.3z M319.9,32.8c1.4,0,2.8-0.5,4-1.4c1.3-0.9,2.3-2.1,3.1-3.5c0.8-1.4,1.2-2.9,1.2-4.4
						c0-1.5-0.5-2.3-1.4-2.3c-1.3,0-2.6,1.2-3.9,3.6S320.5,29.8,319.9,32.8z"/>
					<path id="profile-cards" class="st5" d="M147.2,64.6h8.1l-0.9,4.2c1.9-1.6,4.1-2.4,6.6-2.4c2.1,0,3.8,0.7,5,2.1
						c1.2,1.4,1.9,3.7,1.9,6.8c0,3-0.4,6-1.3,9s-2.3,5.6-4.4,7.8c-2.1,2.1-4.8,3.2-8.2,3.2c-2.4,0-4-0.7-4.8-2l-2.9,13.8l-8.5,2
						L147.2,64.6z M152.3,90.4c1.8,0,3.3-0.8,4.5-2.5c1.2-1.7,2.1-3.7,2.6-6.1c0.5-2.4,0.8-4.6,0.8-6.6c0-3.1-0.9-4.7-2.8-4.7
						c-0.7,0-1.4,0.2-2.1,0.7s-1.3,1.2-1.8,2l-3.3,15.8C150.4,90,151.1,90.4,152.3,90.4z M173.2,66.7h8.1l-0.7,3.5
						c1.3-1.1,2.4-2,3.5-2.6c1-0.6,2.2-0.9,3.4-0.9c1.2,0,2.2,0.4,2.9,1.2s1,1.8,1,3c0,1.1-0.4,2.1-1.1,2.9s-1.7,1.2-3,1.2
						c-0.8,0-1.4-0.2-1.7-0.6s-0.5-1-0.7-1.7c-0.1-0.5-0.2-0.8-0.3-1.1c-0.1-0.2-0.3-0.3-0.6-0.3c-0.8,0-1.5,0.2-2,0.5
						c-0.5,0.3-1.3,0.9-2.1,1.7L175.3,95h-8.1L173.2,66.7z M198.9,95.2c-2.8,0-5-0.7-6.6-2.2c-1.6-1.4-2.4-3.7-2.4-6.8
						c0-2.6,0.5-5.4,1.6-8.5c1.1-3.1,2.8-5.8,5.1-8.1s5.3-3.4,8.8-3.4c4.8,0,7.2,3,7.2,9.1v0.1c0.1,0,0.3,0.1,0.6,0.1
						c1.2,0,2.7-0.3,4.3-1c1.6-0.7,3.1-1.5,4.4-2.4l0.5,1.5c-1.1,1.2-2.5,2.2-4.3,3c-1.8,0.8-3.7,1.4-5.7,1.7
						c-0.3,3.4-1.1,6.4-2.3,9c-1.2,2.6-2.8,4.5-4.8,5.9C203.3,94.5,201.2,95.2,198.9,95.2z M201.1,90.1c0.9,0,1.8-0.5,2.7-1.6
						c0.9-1,1.7-2.5,2.4-4.2c0.7-1.8,1.2-3.8,1.5-6c-1-0.2-1.5-1-1.5-2.4c0-1.5,0.6-2.6,1.8-3.1c-0.1-1.2-0.3-2.1-0.6-2.6
						c-0.3-0.5-0.8-0.7-1.6-0.7c-1.2,0-2.5,0.9-3.6,2.7c-1.2,1.8-2.1,4-2.8,6.5c-0.7,2.5-1.1,4.8-1.1,6.7c0,1.8,0.2,3,0.6,3.6
						C199.3,89.8,200,90.1,201.1,90.1z M210.8,109.2c-2.1,0-3.8-0.6-5.1-1.7c-1.3-1.2-2-2.7-2-4.6c0-1.6,0.5-2.9,1.4-3.9
						s2-1.8,3.3-2.4c1.3-0.6,3-1.2,5.1-1.9l6.3-29.8c1-4.7,2.7-7.9,5.1-9.6s5.1-2.6,8.1-2.6c2.8,0,5.2,0.5,7.2,1.4
						c2,0.9,2.9,2.6,2.9,5.1c0,1.6-0.4,2.7-1.3,3.5c-0.8,0.7-1.9,1.1-3.2,1.1c-1,0-1.8-0.2-2.4-0.7c-0.6-0.5-1-1.3-1-2.3
						c0-0.7,0.2-1.4,0.5-1.9c0.4-0.6,0.8-0.8,1.4-0.8c0.3,0,0.4,0,0.5,0.1c0-0.8-0.3-1.3-0.9-1.7c-0.5-0.4-1.3-0.6-2.2-0.6
						c-1.7,0-3,0.6-4,1.8c-1,1.2-1.7,2.7-2,4.6l-1,4.6h4.5l-0.5,2.3h-4.5l-6.5,30.6c-0.8,3.5-2.1,6-3.9,7.5
						C215,108.4,212.9,109.2,210.8,109.2z M236.2,95.4c-1.8,0-3.3-0.6-4.4-1.7c-1.1-1.1-1.7-2.8-1.7-5.1c0-0.9,0.2-2.2,0.5-3.7
						l3.8-18.2h8.1L238.5,86c-0.2,0.6-0.2,1.2-0.2,1.8c0,0.8,0.2,1.3,0.5,1.6c0.4,0.3,1,0.5,1.8,0.5c1.1,0,2.1-0.5,3.1-1.4
						c0.9-0.9,1.6-2.1,2-3.6h2.4c-1.4,4.1-3.2,6.8-5.4,8.3C240.5,94.6,238.3,95.4,236.2,95.4z M209.2,104.1c0.6,0,1.3-0.4,1.9-1.1
						c0.6-0.7,1.1-1.8,1.4-3.3l0.7-3.3c-1.9,0.6-3.5,1.4-4.6,2.3c-1.1,0.9-1.7,2-1.7,3.1c0,0.8,0.3,1.4,0.8,1.8
						C208.2,104,208.7,104.1,209.2,104.1z M251.3,95.4c-1.8,0-3.3-0.6-4.4-1.7s-1.7-2.8-1.7-5.1c0-0.9,0.2-2.2,0.5-3.7l6.1-28.3
						l8.4-1.1L253.6,86c-0.2,0.6-0.2,1.2-0.2,1.8c0,0.8,0.2,1.3,0.5,1.6s1,0.5,1.8,0.5c1.1,0,2.1-0.5,3.1-1.4c0.9-0.9,1.6-2.1,2-3.6
						h2.4c-1.4,4.1-3.2,6.8-5.4,8.3C255.6,94.6,253.4,95.4,251.3,95.4z M268.8,95.4c-2.8,0-4.9-0.7-6.5-2.2
						c-1.5-1.5-2.3-3.7-2.3-6.8c0-2.6,0.5-5.5,1.5-8.6c1-3.1,2.7-5.8,5-8.1c2.3-2.3,5.2-3.4,8.8-3.4c4.1,0,6.2,1.8,6.2,5.4
						c0,2.1-0.6,4.1-1.8,5.8c-1.2,1.8-2.8,3.2-4.8,4.3c-2,1.1-4.1,1.7-6.4,1.8c-0.1,0.8-0.1,1.4-0.1,1.7c0,3.1,1.2,4.7,3.5,4.7
						c1.1,0,2.2-0.3,3.4-0.8c1.2-0.6,2.3-1.3,3.3-2.2C277.5,92.6,274.3,95.4,268.8,95.4z M268.9,80.9c1.4,0,2.8-0.5,4-1.4
						s2.3-2.1,3.1-3.5c0.8-1.4,1.2-2.9,1.2-4.4c0-1.5-0.5-2.3-1.4-2.3c-1.3,0-2.6,1.2-3.9,3.6C270.5,75.2,269.5,77.9,268.9,80.9z
						 M283.6,78h11.3l-1,4.5h-11.4L283.6,78z M306,95.4c-2.8,0-5-0.7-6.5-2.2c-1.5-1.5-2.3-3.7-2.3-6.8c0-2.6,0.5-5.5,1.6-8.6
						c1-3.1,2.7-5.8,5-8.1s5.2-3.4,8.7-3.4c2.3,0,3.9,0.5,4.8,1.5c1,1,1.4,2.2,1.4,3.7c0,1.3-0.3,2.3-0.8,3.1
						c-0.6,0.7-1.3,1.1-2.2,1.1c-0.6,0-1.3-0.2-2-0.7c0.5-1.2,0.7-2.4,0.7-3.3c0-0.7-0.1-1.3-0.4-1.7s-0.7-0.6-1.2-0.6
						c-1.1,0-2.3,0.9-3.4,2.8c-1.1,1.8-2.1,4.1-2.8,6.7s-1.1,5-1.1,7.1c0,1.8,0.3,3.1,1,3.8c0.6,0.7,1.7,1,3.1,1
						c2,0,3.8-0.5,5.2-1.4c1.5-0.9,3-2.4,4.8-4.3h1.9C317.4,91.9,312.2,95.4,306,95.4z M326.4,95.4c-2.2,0-3.9-0.7-5.4-2.2
						c-1.4-1.5-2.2-3.8-2.2-6.9c0-2.8,0.6-5.7,1.7-8.8s2.8-5.7,5-7.8s4.8-3.2,7.9-3.2c1.5,0,2.7,0.3,3.5,0.8
						c0.8,0.5,1.1,1.2,1.1,2.1v0.4l0.6-3h8.1L342.7,86c-0.2,0.6-0.2,1.2-0.2,1.8c0,1.6,0.8,2.4,2.3,2.4c1.1,0,2-0.5,2.7-1.5
						c0.8-1,1.4-2.3,1.8-3.8h2.4c-1.4,4.1-3.1,6.8-5.2,8.3c-2.1,1.5-4.1,2.2-6.2,2.2c-1.6,0-2.9-0.4-3.8-1.3c-1-0.9-1.5-2.2-1.7-3.9
						c-1.1,1.5-2.3,2.8-3.6,3.8C329.9,94.9,328.3,95.4,326.4,95.4z M330.1,89.9c0.9,0,1.9-0.4,2.8-1.3s1.6-2.1,1.9-3.6l2.7-12.8
						c0-0.5-0.2-1-0.6-1.4c-0.4-0.5-1-0.7-1.8-0.7c-1.5,0-2.9,0.9-4.1,2.6c-1.2,1.8-2.2,3.9-2.8,6.3c-0.7,2.5-1,4.6-1,6.5
						c0,1.9,0.3,3.1,0.8,3.6C328.6,89.6,329.3,89.9,330.1,89.9z M353.2,66.7h8.1l-0.7,3.5c1.3-1.1,2.4-2,3.5-2.6
						c1-0.6,2.2-0.9,3.4-0.9c1.2,0,2.2,0.4,2.9,1.2c0.7,0.8,1,1.8,1,3c0,1.1-0.4,2.1-1.1,2.9c-0.7,0.8-1.7,1.2-3,1.2
						c-0.8,0-1.4-0.2-1.7-0.6s-0.5-1-0.7-1.7c-0.1-0.5-0.2-0.8-0.3-1.1c-0.1-0.2-0.3-0.3-0.6-0.3c-0.8,0-1.5,0.2-2,0.5
						c-0.5,0.3-1.3,0.9-2.1,1.7L355.4,95h-8.1L353.2,66.7z M377.4,95.4c-2.2,0-3.9-0.7-5.4-2.2c-1.4-1.5-2.2-3.8-2.2-6.9
						c0-2.8,0.6-5.7,1.7-8.8c1.1-3.1,2.8-5.7,5-7.8c2.2-2.1,4.8-3.2,7.9-3.2c1.5,0,2.7,0.3,3.5,0.8s1.1,1.2,1.1,2.1v0.2l2.8-13
						l8.4-1.1L393.7,86c-0.2,0.6-0.2,1.2-0.2,1.8c0,0.8,0.2,1.3,0.5,1.6c0.4,0.3,1,0.5,1.8,0.5c1.1,0,2-0.5,2.7-1.4
						c0.8-0.9,1.4-2.1,1.8-3.6h2.4c-2.3,6.8-6.1,10.1-11.4,10.1c-1.5,0-2.8-0.4-3.8-1.2c-1-0.8-1.6-2-1.8-3.6
						c-1,1.5-2.2,2.8-3.5,3.7C380.9,94.9,379.3,95.4,377.4,95.4z M381.1,89.9c0.9,0,1.8-0.4,2.7-1.2c0.9-0.8,1.6-2,1.9-3.5v-0.3
						l2.8-13c-0.3-1.3-1.1-2-2.3-2c-1.5,0-2.9,0.9-4.1,2.6c-1.2,1.8-2.2,3.9-2.8,6.3c-0.7,2.5-1,4.6-1,6.5c0,1.9,0.3,3.1,0.8,3.6
						C379.7,89.6,380.3,89.9,381.1,89.9z M406.8,95.4c-1.8,0-3.3-0.3-4.6-1c-1.2-0.7-2.2-1.6-2.8-2.7c-0.6-1.1-0.9-2.3-0.9-3.5
						c0-1.2,0.3-2.3,0.9-3.3c0.6-0.9,1.3-1.6,2.1-2c1.5-2.6,2.8-5.3,3.8-8c1.1-2.7,2.1-5.6,3.1-8.7l8.4-1.1c0.2,4.8,0.5,10.1,1,15.7
						c0.2,2.3,0.3,3.9,0.3,4.9c0,2.3-0.6,4.2-1.8,5.7s-2.6,2.5-4.3,3.2C410.3,95,408.6,95.4,406.8,95.4z M405,90.9
						c1.4,0,2.6-0.4,3.5-1.2c0.9-0.8,1.4-2.2,1.4-4c0-1.1-0.1-2.7-0.3-4.8c-0.4-4.3-0.6-7.2-0.7-8.7c-0.9,3-2.4,6.5-4.6,10.7
						c0.9,0.5,1.3,1.1,1.3,2c0,0.7-0.2,1.4-0.7,1.9c-0.5,0.6-1.1,0.8-1.8,0.8c-0.8,0-1.3-0.2-1.5-0.7c0,1.4,0.3,2.4,0.8,3
						C402.9,90.6,403.8,90.9,405,90.9z"/>
					<path class="st6" d="M136.8,52c-1.4,0-2.6-0.1-3.7-0.3s-2-0.8-2.7-1.6s-1.2-2.2-1.2-4c0-2.5,0.8-5.9,2.3-10.2s3.5-8.5,6-12.8
						c-1.9,0.1-3.4,0.4-4.5,0.8c-1.1,0.5-1.8,1.2-2.2,2.1c0.2,0,0.3,0.2,0.5,0.6c0.2,0.4,0.3,0.8,0.3,1.2c0,0.7-0.3,1.2-0.9,1.6
						s-1.4,0.6-2.3,0.6c-1.1,0-1.9-0.3-2.5-0.8c-0.6-0.6-1-1.4-1-2.4c0-1.3,0.5-2.5,1.5-3.5c1-1.1,2.4-1.9,4.2-2.5s3.7-0.9,5.9-0.9
						c0.8,0,1.8,0.1,2.9,0.2c3.1-4.9,6.4-8.9,9.8-12s6.7-4.7,9.9-4.7c1.8,0,3.3,0.3,4.5,0.8l-8.9,41.6h-8.1L151,25
						c-1.4-0.6-2.7-1.1-3.8-1.4c-1.2-0.3-2.4-0.5-3.7-0.6c-2.2,4.6-3.9,9.4-5.3,14.2c-1.4,4.8-2.1,8.7-2.1,11.6
						C136,50.2,136.3,51.3,136.8,52z M154.7,7.1c-1.6,0.9-3.3,2.5-5.1,4.8s-3.5,5.2-5.1,8.6c2.7,0.5,5,1.2,6.9,2L154.7,7.1z
						 M167.9,45.8c-1.8,0-3.3-0.6-4.4-1.7c-1.1-1.1-1.7-2.8-1.7-5.1c0-0.9,0.2-2.2,0.5-3.7l3.8-18.2h8.1l-4.1,19.2
						c-0.1,0.5-0.2,0.9-0.2,1.4c0,1.7,0.6,2.5,1.7,2.5c1.1,0,2-0.4,2.7-1.3s1.4-2.1,1.8-3.6l3.8-18.2h8.1l-4.1,19.2
						c-0.2,0.9-0.3,1.6-0.3,2c0,1.2,0.6,1.9,1.9,1.9c1.7,0,3.3-1.1,4.8-3.3s2.7-4.8,3.6-7.8s1.4-5.6,1.4-7.8
						c-0.1,0.2-0.3,0.3-0.7,0.4c-0.4,0.1-0.8,0.1-1.1,0.1c-0.6,0-1.1-0.3-1.5-0.9c-0.4-0.6-0.5-1.3-0.5-2c0-0.9,0.3-1.6,0.9-2.2
						s1.5-0.8,2.6-0.8c1.2,0,2.2,0.5,2.7,1.4c0.6,0.9,0.8,2.1,0.8,3.5c0,3.4-0.6,7-1.8,10.9c-1.2,3.9-3,7.2-5.4,9.9s-5.4,4.1-9,4.1
						c-1.8,0-3.4-0.4-4.5-1.2c-1.2-0.8-1.9-2-2.3-3.6C173.8,44.3,171.1,45.8,167.9,45.8z M207.8,45.8c-2.8,0-5-0.7-6.5-2.2
						s-2.3-3.7-2.3-6.8c0-2.6,0.5-5.5,1.5-8.6c1-3.1,2.7-5.8,5-8.1c2.3-2.3,5.2-3.4,8.8-3.4c4.1,0,6.2,1.8,6.2,5.4
						c0,2.1-0.6,4.1-1.8,5.8c-1.2,1.8-2.8,3.2-4.8,4.3c-2,1.1-4.1,1.7-6.4,1.8c-0.1,1.1-0.1,1.9-0.1,2.3c0,1.8,0.3,3.1,1,3.8
						s1.7,1,3.1,1c2,0,3.8-0.5,5.2-1.4s3-2.4,4.8-4.3h1.9C219.1,42.4,213.9,45.8,207.8,45.8z M207.9,31.4c1.4-0.1,2.7-0.6,4-1.5
						c1.3-0.9,2.3-2.1,3.1-3.5c0.8-1.4,1.2-2.9,1.2-4.4s-0.5-2.3-1.4-2.3c-1.4,0-2.7,1.2-4,3.6C209.4,25.6,208.4,28.3,207.9,31.4z
						 M227.8,45.8c-1.8,0-3.3-0.3-4.6-1c-1.2-0.7-2.2-1.6-2.8-2.7s-0.9-2.3-0.9-3.5c0-1.2,0.3-2.3,0.9-3.3c0.6-0.9,1.3-1.6,2.1-2
						c1.5-2.6,2.8-5.3,3.8-8s2.1-5.6,3.1-8.7l8.4-1.1c0.2,4.8,0.5,10.1,1,15.7c0.2,2.3,0.3,3.9,0.3,4.9c0,0.9-0.1,1.6-0.2,2.2
						c1.8-1,3.1-2,4.1-2.8h2.4c-2.4,2.8-5.3,5.1-8.7,7.1c-1.1,1.2-2.4,2-4,2.6C231.1,45.6,229.5,45.8,227.8,45.8z M226,41.4
						c1.4,0,2.6-0.4,3.5-1.2c0.9-0.8,1.4-2.2,1.4-4c0-1.1-0.1-2.7-0.3-4.8c-0.4-4.3-0.6-7.2-0.7-8.7c-0.9,3-2.4,6.5-4.6,10.7
						c0.9,0.5,1.3,1.1,1.3,2c0,0.7-0.2,1.4-0.7,1.9c-0.5,0.6-1.1,0.8-1.8,0.8c-0.8,0-1.3-0.2-1.5-0.7c0,1.4,0.3,2.4,0.8,3
						C224,41.1,224.8,41.4,226,41.4z M251.3,45.7c-2.8,0-5-0.7-6.6-2.2s-2.4-3.7-2.4-6.8c0-2.6,0.5-5.4,1.6-8.5
						c1.1-3.1,2.8-5.8,5.1-8.1s5.3-3.4,8.8-3.4c4.8,0,7.2,3,7.2,9.1v0.1c0.1,0,0.3,0.1,0.6,0.1c1.2,0,2.7-0.3,4.3-1s3.1-1.5,4.4-2.4
						l0.5,1.5c-1.1,1.2-2.5,2.2-4.3,3s-3.7,1.4-5.7,1.7c-0.3,3.4-1.1,6.4-2.3,9c-1.2,2.6-2.8,4.5-4.8,5.9
						C255.7,45,253.6,45.7,251.3,45.7z M253.5,40.6c0.9,0,1.8-0.5,2.7-1.6c0.9-1,1.7-2.5,2.4-4.2c0.7-1.8,1.2-3.8,1.5-6
						c-1-0.2-1.5-1-1.5-2.4c0-1.5,0.6-2.6,1.8-3.1c-0.1-1.2-0.3-2.1-0.6-2.6c-0.3-0.5-0.8-0.7-1.6-0.7c-1.2,0-2.5,0.9-3.6,2.7
						c-1.2,1.8-2.1,4-2.8,6.5s-1.1,4.8-1.1,6.7c0,1.8,0.2,3,0.6,3.6C251.7,40.3,252.4,40.6,253.5,40.6z M302.3,45.8
						c-2.3,0-4-0.6-5.1-1.8c-1.1-1.2-1.6-2.7-1.6-4.6c0-0.8,0.1-1.7,0.3-2.7c0.2-1,0.4-2,0.6-2.9c0.2-0.9,0.3-1.5,0.4-1.8
						c0.3-1.3,0.6-2.6,0.8-3.9s0.4-2.3,0.4-3.1c0-1.9-0.7-2.9-2-2.9c-1,0-1.8,0.5-2.6,1.4c-0.8,1-1.4,2.2-1.8,3.8l-3.8,18.2h-8.1
						l4.1-19.5c0.1-0.5,0.2-0.9,0.2-1.4c0-1.7-0.6-2.5-1.7-2.5c-1.1,0-2,0.5-2.7,1.4c-0.8,1-1.4,2.2-1.8,3.8l-3.8,18.2h-8.1l6-28.3
						h8.1l-0.6,2.9c1.9-2.2,4.2-3.2,6.9-3.2c3.3,0,5.3,1.6,5.8,4.9c2.1-3.2,4.7-4.8,7.9-4.8c1.9,0,3.5,0.5,4.6,1.6s1.7,2.7,1.7,4.8
						c0,1.1-0.1,2.3-0.4,3.6c-0.3,1.3-0.6,3-1.1,4.9c-0.3,1.2-0.6,2.3-0.8,3.4c-0.2,1.1-0.4,2-0.4,2.6c0,0.8,0.2,1.3,0.5,1.8
						s0.9,0.6,1.8,0.6c1.1,0,2-0.4,2.7-1.2c0.7-0.8,1.4-2.1,2-3.8h2.4c-1.4,4.1-3,6.9-4.8,8.3C306.1,45.1,304.2,45.8,302.3,45.8z
						 M318.4,45.8c-2.8,0-4.9-0.7-6.5-2.2s-2.3-3.7-2.3-6.8c0-2.6,0.5-5.5,1.5-8.6s2.7-5.8,5-8.1s5.2-3.4,8.8-3.4
						c4.1,0,6.2,1.8,6.2,5.4c0,2.1-0.6,4.1-1.8,5.8c-1.2,1.8-2.8,3.2-4.8,4.3c-2,1.1-4.1,1.7-6.4,1.8c-0.1,0.8-0.1,1.4-0.1,1.7
						c0,3.1,1.2,4.7,3.5,4.7c1.1,0,2.2-0.3,3.4-0.8c1.2-0.6,2.3-1.3,3.3-2.2C327.1,43.1,323.9,45.8,318.4,45.8z M318.5,31.4
						c1.4,0,2.8-0.5,4-1.4c1.3-0.9,2.3-2.1,3.1-3.5c0.8-1.4,1.2-2.9,1.2-4.4s-0.5-2.3-1.4-2.3c-1.3,0-2.6,1.2-3.9,3.6
						S319.1,28.4,318.5,31.4z"/>
					<path class="st6" d="M145.8,63.2h8.1l-0.9,4.2c1.9-1.6,4.1-2.4,6.6-2.4c2.1,0,3.8,0.7,5,2.1c1.2,1.4,1.9,3.7,1.9,6.8
						c0,3-0.4,6-1.3,9s-2.3,5.6-4.4,7.8c-2.1,2.1-4.8,3.2-8.2,3.2c-2.4,0-4-0.7-4.8-2l-2.9,13.8l-8.5,2L145.8,63.2z M150.8,89
						c1.8,0,3.3-0.8,4.5-2.5c1.2-1.7,2.1-3.7,2.6-6.1c0.5-2.4,0.8-4.6,0.8-6.6c0-3.1-0.9-4.7-2.8-4.7c-0.7,0-1.4,0.2-2.1,0.7
						c-0.7,0.5-1.3,1.2-1.8,2l-3.3,15.8C149,88.6,149.7,89,150.8,89z M171.8,65.3h8.1l-0.7,3.5c1.3-1.1,2.4-2,3.5-2.6
						c1-0.6,2.2-0.9,3.4-0.9c1.2,0,2.2,0.4,2.9,1.2s1,1.8,1,3c0,1.1-0.4,2.1-1.1,2.9s-1.7,1.2-3,1.2c-0.8,0-1.4-0.2-1.7-0.6
						c-0.3-0.4-0.5-1-0.7-1.7c-0.1-0.5-0.2-0.8-0.3-1.1c-0.1-0.2-0.3-0.3-0.6-0.3c-0.8,0-1.5,0.2-2,0.5c-0.5,0.3-1.3,0.9-2.1,1.7
						l-4.5,21.5h-8.1L171.8,65.3z M197.5,93.8c-2.8,0-5-0.7-6.6-2.2c-1.6-1.4-2.4-3.7-2.4-6.8c0-2.6,0.5-5.4,1.6-8.5
						c1.1-3.1,2.8-5.8,5.1-8.1c2.3-2.3,5.3-3.4,8.8-3.4c4.8,0,7.2,3,7.2,9.1v0.1c0.1,0,0.3,0.1,0.6,0.1c1.2,0,2.7-0.3,4.3-1
						c1.6-0.7,3.1-1.5,4.4-2.4l0.5,1.5c-1.1,1.2-2.5,2.2-4.3,3s-3.7,1.4-5.7,1.7c-0.3,3.4-1.1,6.4-2.3,9c-1.2,2.6-2.8,4.5-4.8,5.9
						C201.9,93.1,199.8,93.8,197.5,93.8z M199.7,88.7c0.9,0,1.8-0.5,2.7-1.6c0.9-1,1.7-2.5,2.4-4.2s1.2-3.8,1.5-6
						c-1-0.2-1.5-1-1.5-2.4c0-1.5,0.6-2.6,1.8-3.1c-0.1-1.2-0.3-2.1-0.6-2.6s-0.8-0.7-1.6-0.7c-1.2,0-2.5,0.9-3.6,2.7
						c-1.2,1.8-2.1,4-2.8,6.5s-1.1,4.8-1.1,6.7c0,1.8,0.2,3,0.6,3.6C197.9,88.4,198.6,88.7,199.7,88.7z M209.3,107.7
						c-2.1,0-3.8-0.6-5.1-1.7c-1.3-1.2-2-2.7-2-4.6c0-1.6,0.5-2.9,1.4-3.9c0.9-1,2-1.8,3.3-2.4c1.3-0.6,3-1.2,5.1-1.9l6.3-29.8
						c1-4.7,2.7-7.9,5.1-9.6c2.4-1.7,5.1-2.6,8.1-2.6c2.8,0,5.2,0.5,7.2,1.4c2,0.9,2.9,2.6,2.9,5.1c0,1.6-0.4,2.7-1.3,3.5
						c-0.8,0.7-1.9,1.1-3.2,1.1c-1,0-1.8-0.2-2.4-0.7s-1-1.3-1-2.3c0-0.7,0.2-1.4,0.5-1.9c0.4-0.6,0.8-0.8,1.4-0.8
						c0.3,0,0.4,0,0.5,0.1c0-0.8-0.3-1.3-0.9-1.7c-0.5-0.4-1.3-0.6-2.2-0.6c-1.7,0-3,0.6-4,1.8c-1,1.2-1.7,2.7-2,4.6l-1,4.6h4.5
						l-0.5,2.3h-4.5l-6.5,30.6c-0.8,3.5-2.1,6-3.9,7.5S211.5,107.7,209.3,107.7z M234.8,93.9c-1.8,0-3.3-0.6-4.4-1.7
						c-1.1-1.1-1.7-2.8-1.7-5.1c0-0.9,0.2-2.2,0.5-3.7l3.8-18.2h8.1l-4.1,19.2c-0.2,0.6-0.2,1.2-0.2,1.8c0,0.8,0.2,1.3,0.5,1.6
						c0.4,0.3,1,0.5,1.8,0.5c1.1,0,2.1-0.5,3.1-1.4s1.6-2.1,2-3.6h2.4c-1.4,4.1-3.2,6.8-5.4,8.3C239.1,93.2,236.9,93.9,234.8,93.9z
						 M207.8,102.7c0.6,0,1.3-0.4,1.9-1.1c0.6-0.7,1.1-1.8,1.4-3.3l0.7-3.3c-1.9,0.6-3.5,1.4-4.6,2.3s-1.7,2-1.7,3.1
						c0,0.8,0.3,1.4,0.8,1.8C206.8,102.5,207.3,102.7,207.8,102.7z M249.9,93.9c-1.8,0-3.3-0.6-4.4-1.7c-1.1-1.1-1.7-2.8-1.7-5.1
						c0-0.9,0.2-2.2,0.5-3.7l6.1-28.3l8.4-1.1l-6.5,30.6c-0.2,0.6-0.2,1.2-0.2,1.8c0,0.8,0.2,1.3,0.5,1.6c0.4,0.3,1,0.5,1.8,0.5
						c1.1,0,2.1-0.5,3.1-1.4c0.9-0.9,1.6-2.1,2-3.6h2.4c-1.4,4.1-3.2,6.8-5.4,8.3S252,93.9,249.9,93.9z M267.3,93.9
						c-2.8,0-4.9-0.7-6.5-2.2s-2.3-3.7-2.3-6.8c0-2.6,0.5-5.5,1.5-8.6c1-3.1,2.7-5.8,5-8.1c2.3-2.3,5.2-3.4,8.8-3.4
						c4.1,0,6.2,1.8,6.2,5.4c0,2.1-0.6,4.1-1.8,5.8s-2.8,3.2-4.8,4.3c-2,1.1-4.1,1.7-6.4,1.8c-0.1,0.8-0.1,1.4-0.1,1.7
						c0,3.1,1.2,4.7,3.5,4.7c1.1,0,2.2-0.3,3.4-0.8c1.2-0.6,2.3-1.3,3.3-2.2C276.1,91.1,272.8,93.9,267.3,93.9z M267.5,79.5
						c1.4,0,2.8-0.5,4-1.4c1.3-0.9,2.3-2.1,3.1-3.5c0.8-1.4,1.2-2.9,1.2-4.4c0-1.5-0.5-2.3-1.4-2.3c-1.3,0-2.6,1.2-3.9,3.6
						S268.1,76.5,267.5,79.5z M282.2,76.6h11.3l-1,4.5h-11.4L282.2,76.6z M304.6,93.9c-2.8,0-5-0.7-6.5-2.2
						c-1.5-1.5-2.3-3.7-2.3-6.8c0-2.6,0.5-5.5,1.6-8.6c1-3.1,2.7-5.8,5-8.1c2.3-2.3,5.2-3.4,8.7-3.4c2.3,0,3.9,0.5,4.8,1.5
						c1,1,1.4,2.2,1.4,3.7c0,1.3-0.3,2.3-0.8,3.1c-0.6,0.7-1.3,1.1-2.2,1.1c-0.6,0-1.3-0.2-2-0.7c0.5-1.2,0.7-2.4,0.7-3.3
						c0-0.7-0.1-1.3-0.4-1.7c-0.3-0.4-0.7-0.6-1.2-0.6c-1.1,0-2.3,0.9-3.4,2.8c-1.1,1.8-2.1,4.1-2.8,6.7c-0.7,2.6-1.1,5-1.1,7.1
						c0,1.8,0.3,3.1,1,3.8c0.6,0.7,1.7,1,3.1,1c2,0,3.8-0.5,5.2-1.4s3-2.4,4.8-4.3h1.9C315.9,90.5,310.8,93.9,304.6,93.9z M325,93.9
						c-2.2,0-3.9-0.7-5.4-2.2c-1.4-1.5-2.2-3.8-2.2-6.9c0-2.8,0.6-5.7,1.7-8.8c1.1-3.1,2.8-5.7,5-7.8c2.2-2.1,4.8-3.2,7.9-3.2
						c1.5,0,2.7,0.3,3.5,0.8c0.8,0.5,1.1,1.2,1.1,2.1v0.4l0.6-3h8.1l-4.1,19.2c-0.2,0.6-0.2,1.2-0.2,1.8c0,1.6,0.8,2.4,2.3,2.4
						c1.1,0,2-0.5,2.7-1.5c0.8-1,1.4-2.3,1.8-3.8h2.4c-1.4,4.1-3.1,6.8-5.2,8.3s-4.1,2.2-6.2,2.2c-1.6,0-2.9-0.4-3.8-1.3
						s-1.5-2.2-1.7-3.9c-1.1,1.5-2.3,2.8-3.6,3.8C328.4,93.5,326.8,93.9,325,93.9z M328.7,88.5c0.9,0,1.9-0.4,2.8-1.3
						c0.9-0.9,1.6-2.1,1.9-3.6l2.7-12.8c0-0.5-0.2-1-0.6-1.4s-1-0.7-1.8-0.7c-1.5,0-2.9,0.9-4.1,2.6c-1.2,1.8-2.2,3.9-2.8,6.3
						c-0.7,2.5-1,4.6-1,6.5s0.3,3.1,0.8,3.6C327.2,88.2,327.9,88.5,328.7,88.5z M351.8,65.3h8.1l-0.7,3.5c1.3-1.1,2.4-2,3.5-2.6
						c1-0.6,2.2-0.9,3.4-0.9s2.2,0.4,2.9,1.2s1,1.8,1,3c0,1.1-0.4,2.1-1.1,2.9s-1.7,1.2-3,1.2c-0.8,0-1.4-0.2-1.7-0.6
						s-0.5-1-0.7-1.7c-0.1-0.5-0.2-0.8-0.3-1.1c-0.1-0.2-0.3-0.3-0.6-0.3c-0.8,0-1.5,0.2-2,0.5c-0.5,0.3-1.3,0.9-2.1,1.7L354,93.6
						h-8.1L351.8,65.3z M376,93.9c-2.2,0-3.9-0.7-5.4-2.2c-1.4-1.5-2.2-3.8-2.2-6.9c0-2.8,0.6-5.7,1.7-8.8c1.1-3.1,2.8-5.7,5-7.8
						c2.2-2.1,4.8-3.2,7.9-3.2c1.5,0,2.7,0.3,3.5,0.8c0.8,0.5,1.1,1.2,1.1,2.1v0.2l2.8-13l8.4-1.1l-6.5,30.6
						c-0.2,0.6-0.2,1.2-0.2,1.8c0,0.8,0.2,1.3,0.5,1.6c0.4,0.3,1,0.5,1.8,0.5c1.1,0,2-0.5,2.7-1.4c0.8-0.9,1.4-2.1,1.8-3.6h2.4
						c-2.3,6.8-6.1,10.1-11.4,10.1c-1.5,0-2.8-0.4-3.8-1.2c-1-0.8-1.6-2-1.8-3.6c-1,1.5-2.2,2.8-3.5,3.7S377.9,93.9,376,93.9z
						 M379.7,88.5c0.9,0,1.8-0.4,2.7-1.2c0.9-0.8,1.6-2,1.9-3.5v-0.3l2.8-13c-0.3-1.3-1.1-2-2.3-2c-1.5,0-2.9,0.9-4.1,2.6
						c-1.2,1.8-2.2,3.9-2.8,6.3c-0.7,2.5-1,4.6-1,6.5s0.3,3.1,0.8,3.6C378.2,88.2,378.9,88.5,379.7,88.5z M405.4,93.9
						c-1.8,0-3.3-0.3-4.6-1c-1.2-0.7-2.2-1.6-2.8-2.7c-0.6-1.1-0.9-2.3-0.9-3.5c0-1.2,0.3-2.3,0.9-3.3c0.6-0.9,1.3-1.6,2.1-2
						c1.5-2.6,2.8-5.3,3.8-8c1.1-2.7,2.1-5.6,3.1-8.7l8.4-1.1c0.2,4.8,0.5,10.1,1,15.7c0.2,2.3,0.3,3.9,0.3,4.9
						c0,2.3-0.6,4.2-1.8,5.7c-1.2,1.5-2.6,2.5-4.3,3.2C408.9,93.6,407.2,93.9,405.4,93.9z M403.6,89.5c1.4,0,2.6-0.4,3.5-1.2
						s1.4-2.2,1.4-4c0-1.1-0.1-2.7-0.3-4.8c-0.4-4.3-0.6-7.2-0.7-8.7c-0.9,3-2.4,6.5-4.6,10.7c0.9,0.5,1.3,1.1,1.3,2
						c0,0.7-0.2,1.4-0.7,1.9c-0.5,0.6-1.1,0.8-1.8,0.8c-0.8,0-1.3-0.2-1.5-0.7c0,1.4,0.3,2.4,0.8,3
						C401.5,89.2,402.4,89.5,403.6,89.5z"/>
				</g>
			</g>
		</g>
	</g>
</g>
<g class="st0">
	<g>
		<path class="st7" d="M45.2,14.1c-0.2,1.5,0.7,2.8,2.4,3.6c0.2,0.4,0.3,0.8,0.4,1.2l-22,0.7l-1.6,14.6l0.2,0c0.5,0,1-0.1,1.6-0.2
			l0.1,0l0.1-0.1c1.6-1.8,4-2.9,6.4-3c4.2-0.1,7.2,2.9,6.8,6.7c-0.4,3.8-4.2,7.1-8.4,7.2c-3.1,0.1-5.6-1.5-6.5-4.1l0-0.1l-0.1,0
			c-0.2,0-0.4,0-0.5,0l-0.2,0l-1.5,13.2l0,0l-1.5,13.3c-0.1,0-0.3,0-0.4,0.1c-0.4,0-0.8,0.1-1.2,0c-1-2.7-3.6-4.4-6.9-4.3
			c-4.4,0.1-8.4,3.6-8.9,7.7C2.8,74.9,6,78.1,10.5,78c2.5-0.1,5-1.2,6.7-3.1c0.8-0.2,1.5-0.2,2.1-0.1c0.2,0,0.3,0.1,0.4,0.1
			l-1.6,14.1l22.7-0.7l0-0.2c-0.1-0.5-0.2-1-0.4-1.6l0-0.1l-0.1,0c-1.6-0.7-2.4-2-2.3-3.4c0.2-2.3,3.1-4.2,6.4-4.3
			c3.3-0.1,5.7,1.7,5.5,4c-0.1,1.3-1.2,2.6-2.9,3.4L47,86.1l0,0.1c-0.1,0.6-0.1,1.2,0,1.7l0,0.1l13.9-0.4l0.4,0l17.2-0.5
			c-0.1,0.4-0.4,0.8-0.6,1.2c-1.9,0.9-3.1,2.3-3.2,3.9c-0.3,2.5,2.4,4.5,5.9,4.4c3.5-0.1,6.6-2.2,6.9-4.8c0.2-1.4-0.7-2.8-2.2-3.6
			c0-0.4,0.1-0.9,0.3-1.3l18.7-0.6l1.5-14.4l-0.1-0.1c-0.8-0.4-1.9-0.4-3.1-0.1l-0.1,0l-0.1,0.1c-1.7,1.9-4,3-6.4,3
			c-4.2,0.1-7.3-2.9-6.9-6.8c0.4-3.9,4.2-7.2,8.4-7.3c3.1-0.1,5.7,1.5,6.6,4.1l0,0.1l0.1,0c0.7,0,1.4,0,2.1-0.2l0.2,0l1.3-13.3
			l0-0.5l1.3-12.9c0,0,0.1,0,0.2,0c1,2.7,3.7,4.3,7,4.2c4.5-0.1,8.4-3.6,8.8-7.7c0.4-4.1-2.9-7.3-7.3-7.1c-2.5,0.1-5,1.2-6.7,3.1
			c-0.4,0.1-0.8,0.2-1.2,0.2l1.4-14.3l-18.8,0.6l-0.1,0.1c-0.2,0.5-0.3,1.1-0.4,1.7l0,0.1l0.1,0.1c1.5,0.7,2.3,1.9,2.1,3.2
			c-0.2,2.2-3.1,4.2-6.4,4.3c-3.3,0.1-5.7-1.6-5.5-3.9c0.1-1.4,1.3-2.7,3-3.5l0.1,0l0-0.1c0.3-0.6,0.6-1.1,0.8-1.5l0.1-0.2
			l-17.6,0.6l-0.4,0l-13.5,0.4c-0.1-0.4-0.1-0.8,0-1.3c1.7-0.9,2.8-2.3,3-3.7c0.3-2.5-2.4-4.4-5.9-4.2C48.5,9.5,45.5,11.6,45.2,14.1
			z"/>
		<path class="st8" d="M45.1,14.2c-0.2,1.5,0.7,2.8,2.4,3.6c0.2,0.4,0.3,0.8,0.4,1.2L26,19.7l-1.6,14.6l0.2,0c0.5,0,1-0.1,1.6-0.2
			l0.1,0l0.1-0.1c1.6-1.8,3.9-2.9,6.3-3c4.2-0.1,7.2,2.9,6.8,6.7c-0.4,3.8-4.1,7.1-8.3,7.2c-3.1,0.1-5.6-1.5-6.5-4.1l0-0.1l-0.1,0
			c-0.2,0-0.4,0-0.5,0l-0.2,0l-1.4,13.2l0,0l-1.4,13.3c-0.1,0-0.3,0-0.4,0.1c-0.4,0-0.8,0.1-1.2,0c-1-2.7-3.6-4.3-6.8-4.3
			c-4.4,0.1-8.3,3.6-8.8,7.7c-0.4,4.1,2.8,7.3,7.2,7.2c2.5-0.1,4.9-1.2,6.7-3.1c0.8-0.2,1.5-0.2,2.1-0.1c0.2,0,0.3,0.1,0.4,0.1
			l-1.5,14l22.6-0.7l0-0.2c-0.1-0.5-0.2-1-0.4-1.6l0-0.1l-0.1,0c-1.6-0.7-2.4-2-2.3-3.3c0.2-2.3,3.1-4.2,6.3-4.3
			c3.3-0.1,5.7,1.7,5.5,3.9c-0.1,1.3-1.2,2.6-2.8,3.4l-0.1,0.1l0,0.1c-0.1,0.6-0.1,1.2,0,1.7l0,0.1L61,87.6l0.4,0l17.1-0.5
			c-0.1,0.4-0.3,0.7-0.6,1.2c-1.9,0.9-3.1,2.3-3.2,3.9c-0.3,2.5,2.4,4.5,5.9,4.4c3.5-0.1,6.6-2.2,6.8-4.7c0.1-1.4-0.7-2.8-2.2-3.6
			c0-0.4,0.1-0.9,0.3-1.3l18.5-0.5l1.4-14.4l-0.1-0.1c-0.8-0.4-1.8-0.4-3.1-0.1l-0.1,0l-0.1,0.1c-1.6,1.8-4,2.9-6.4,3
			c-4.2,0.1-7.3-2.9-6.9-6.8c0.4-3.9,4.1-7.1,8.3-7.3c3.1-0.1,5.7,1.5,6.6,4.1l0,0.1l0.1,0c0.7,0,1.4,0,2.1-0.2l0.2,0l1.3-13.2
			l0-0.5l1.2-12.8c0,0,0.1,0,0.2,0c1,2.7,3.7,4.3,6.9,4.2c4.4-0.1,8.4-3.6,8.7-7.7c0.4-4.1-2.9-7.3-7.3-7.1
			c-2.5,0.1-4.9,1.2-6.7,3.1c-0.4,0.1-0.8,0.2-1.2,0.2l1.4-14.3l-18.7,0.6L92,17.7c-0.2,0.5-0.3,1.1-0.3,1.6l0,0.1l0.1,0.1
			c1.5,0.7,2.3,1.9,2.1,3.2c-0.2,2.2-3,4.2-6.3,4.3c-3.2,0.1-5.7-1.6-5.5-3.9c0.1-1.4,1.2-2.7,3-3.5l0.1,0l0-0.1
			c0.3-0.6,0.6-1.1,0.7-1.5l0.1-0.2l-17.5,0.6l-0.4,0l-13.4,0.4c-0.1-0.4-0.1-0.8,0-1.3c1.7-0.9,2.8-2.3,2.9-3.7
			c0.3-2.5-2.4-4.4-5.8-4.2C48.3,9.6,45.3,11.7,45.1,14.2z"/>
		<path class="st9" d="M44.9,14.3c-0.1,1.5,0.8,2.8,2.4,3.6c0.2,0.4,0.3,0.8,0.4,1.2L26,19.8l-1.5,14.6l0.2,0c0.5,0,1-0.1,1.5-0.2
			l0.1,0l0.1-0.1c1.6-1.8,3.9-2.9,6.3-3c4.1-0.1,7.2,2.9,6.8,6.7c-0.4,3.8-4.1,7.1-8.2,7.2c-3,0.1-5.6-1.5-6.5-4.1l0-0.1l-0.1,0
			c-0.2,0-0.4,0-0.5,0l-0.2,0l-1.3,13.2l0,0l-1.4,13.3c-0.1,0-0.3,0-0.4,0.1c-0.4,0-0.8,0.1-1.2,0c-1-2.7-3.6-4.3-6.8-4.2
			c-4.4,0.1-8.3,3.5-8.7,7.6c-0.4,4.1,2.8,7.3,7.2,7.2c2.5-0.1,4.9-1.2,6.6-3.1c0.8-0.2,1.5-0.2,2.1-0.1c0.2,0,0.3,0.1,0.4,0.1
			l-1.4,14l22.4-0.6l0-0.2c-0.1-0.5-0.2-1-0.4-1.6l0-0.1l-0.1,0c-1.6-0.7-2.4-2-2.3-3.3c0.2-2.3,3-4.2,6.3-4.3
			c3.2-0.1,5.7,1.7,5.5,3.9c-0.1,1.3-1.2,2.6-2.8,3.4L47.4,86l0,0.1c-0.1,0.6-0.1,1.2,0,1.7l0,0.1l13.7-0.4l0.4,0l17-0.5
			c-0.1,0.4-0.3,0.7-0.6,1.2c-1.8,0.9-3,2.3-3.2,3.8c-0.2,2.5,2.4,4.5,5.9,4.4c3.5-0.1,6.5-2.2,6.8-4.7c0.1-1.4-0.7-2.8-2.2-3.6
			c0-0.4,0.1-0.9,0.3-1.3l18.4-0.5l1.3-14.3l-0.1-0.1c-0.8-0.4-1.8-0.4-3.1-0.1l-0.1,0l0,0.1c-1.6,1.8-3.9,2.9-6.3,3
			c-4.2,0.1-7.3-2.9-6.9-6.8c0.4-3.9,4-7.1,8.2-7.2c3.1-0.1,5.7,1.5,6.6,4.1l0,0.1l0.1,0c0.7,0,1.4,0,2-0.2l0.2,0l1.2-13.2l0-0.5
			l1.2-12.8c0,0,0.1,0,0.2,0c1,2.7,3.7,4.3,6.9,4.2c4.4-0.1,8.3-3.6,8.7-7.6c0.4-4.1-2.9-7.3-7.3-7.1c-2.5,0.1-4.9,1.2-6.6,3.1
			c-0.4,0.1-0.8,0.2-1.1,0.2l1.3-14.2l-18.6,0.6l-0.1,0.1c-0.2,0.5-0.3,1.1-0.3,1.6l0,0.1l0.1,0.1c1.5,0.7,2.3,1.9,2.1,3.2
			c-0.2,2.2-3,4.1-6.2,4.2c-3.2,0.1-5.7-1.6-5.5-3.9c0.1-1.4,1.2-2.6,2.9-3.5l0.1,0l0-0.1c0.3-0.6,0.6-1.1,0.7-1.5l0.1-0.2
			l-17.4,0.5l-0.4,0l-13.3,0.4c-0.1-0.4-0.1-0.8,0-1.3c1.7-0.9,2.8-2.2,2.9-3.7c0.2-2.5-2.4-4.4-5.8-4.2
			C48.2,9.8,45.2,11.9,44.9,14.3z"/>
		<path class="st10" d="M44.8,14.4c-0.1,1.5,0.8,2.8,2.4,3.6c0.2,0.4,0.3,0.8,0.4,1.2L26,19.9l-1.4,14.6l0.2,0c0.5,0,1-0.1,1.5-0.2
			l0.1,0l0.1-0.1c1.6-1.8,3.9-2.9,6.2-3c4.1-0.1,7.1,2.9,6.8,6.7c-0.4,3.8-4,7-8.1,7.2c-3,0.1-5.6-1.5-6.5-4.1l0-0.1l-0.1,0
			c-0.2,0-0.4,0-0.5,0l-0.2,0l-1.3,13.1l0,0l-1.3,13.2c-0.1,0-0.3,0-0.4,0.1c-0.4,0-0.8,0.1-1.2,0c-1-2.7-3.6-4.3-6.8-4.2
			c-4.3,0.1-8.2,3.5-8.6,7.6c-0.4,4.1,2.8,7.3,7.2,7.2c2.5-0.1,4.9-1.2,6.6-3.1c0.8-0.2,1.5-0.2,2.1-0.1c0.2,0,0.3,0.1,0.4,0.1
			l-1.3,14l22.3-0.6l0-0.2c-0.1-0.5-0.2-1-0.5-1.6l0-0.1l-0.1,0c-1.6-0.7-2.4-2-2.3-3.3c0.2-2.3,3-4.2,6.2-4.3
			c3.2-0.1,5.7,1.7,5.5,3.9c-0.1,1.3-1.1,2.6-2.7,3.4L47.6,86l0,0.1c-0.1,0.6-0.1,1.2,0,1.7l0,0.1l13.6-0.4l0.4,0l16.9-0.5
			c-0.1,0.4-0.3,0.7-0.6,1.2c-1.8,0.9-3,2.3-3.1,3.8c-0.2,2.5,2.4,4.4,5.9,4.4c3.5-0.1,6.5-2.2,6.7-4.7c0.1-1.4-0.7-2.8-2.2-3.6
			c0-0.4,0.1-0.9,0.2-1.3l18.3-0.5l1.2-14.3l-0.1-0.1c-0.8-0.4-1.8-0.4-3-0.1l-0.1,0l0,0.1c-1.6,1.8-3.9,2.9-6.3,3
			c-4.1,0.1-7.2-2.9-6.9-6.8c0.3-3.9,4-7.1,8.1-7.2c3.1-0.1,5.6,1.5,6.6,4.1l0,0.1l0.1,0c0.7,0,1.4,0,2-0.2l0.2,0l1.1-13.2l0-0.5
			l1.1-12.8c0,0,0.1,0,0.2,0c1,2.7,3.7,4.3,6.9,4.2c4.4-0.1,8.2-3.5,8.6-7.6c0.3-4.1-2.9-7.3-7.3-7.1c-2.5,0.1-4.9,1.2-6.5,3.1
			c-0.4,0.1-0.8,0.2-1.1,0.2l1.2-14.2l-18.5,0.6L91.2,18c-0.2,0.5-0.3,1.1-0.3,1.6l0,0.1l0.1,0.1c1.5,0.7,2.3,1.9,2.1,3.2
			c-0.2,2.2-3,4.1-6.2,4.2c-3.2,0.1-5.7-1.6-5.5-3.9c0.1-1.4,1.2-2.6,2.9-3.4l0.1,0l0-0.1c0.3-0.6,0.6-1.1,0.7-1.5l0.1-0.2L68,18.6
			l-0.4,0L54.4,19c-0.1-0.4-0.1-0.8,0-1.3c1.7-0.9,2.7-2.2,2.9-3.6c0.2-2.4-2.4-4.3-5.8-4.2C48,9.9,45,12,44.8,14.4z"/>
		<path class="st11" d="M44.6,14.6c-0.1,1.5,0.8,2.8,2.4,3.6c0.2,0.4,0.3,0.8,0.4,1.2L26,19.9l-1.3,14.5l0.2,0c0.5,0,1-0.1,1.5-0.2
			l0.1,0l0.1-0.1c1.6-1.8,3.8-2.9,6.2-2.9c4.1-0.1,7.1,2.9,6.8,6.7c-0.3,3.8-3.9,7-8,7.1c-3,0.1-5.5-1.5-6.5-4.1l0-0.1l-0.1,0
			c-0.2,0-0.4,0-0.5,0l-0.2,0L22.9,54l0,0l-1.2,13.2c-0.1,0-0.3,0-0.4,0.1c-0.4,0-0.8,0.1-1.1,0c-1-2.7-3.6-4.3-6.8-4.2
			c-4.3,0.1-8.1,3.5-8.5,7.6c-0.4,4.1,2.8,7.3,7.2,7.2c2.5-0.1,4.8-1.2,6.5-3.1c0.8-0.2,1.5-0.2,2.1-0.1c0.2,0,0.3,0.1,0.4,0.1
			l-1.3,13.9l22.1-0.6l0-0.2c-0.1-0.5-0.2-1-0.5-1.6l0-0.1l-0.1,0c-1.6-0.7-2.4-2-2.3-3.3c0.2-2.3,3-4.2,6.2-4.2
			c3.2-0.1,5.6,1.7,5.4,3.9c-0.1,1.3-1.1,2.6-2.7,3.4L47.8,86l0,0.1c-0.1,0.6-0.1,1.2,0.1,1.7l0,0.1l13.5-0.4l0.4,0l16.8-0.4
			c-0.1,0.4-0.3,0.7-0.6,1.2c-1.8,0.9-3,2.3-3.1,3.8c-0.2,2.5,2.4,4.4,5.9,4.3c3.5-0.1,6.4-2.2,6.6-4.7c0.1-1.4-0.7-2.8-2.3-3.6
			c0-0.4,0.1-0.9,0.2-1.3l18.2-0.5l1.2-14.2l-0.1-0.1c-0.8-0.4-1.8-0.4-3-0.1l-0.1,0l0,0.1c-1.6,1.8-3.8,2.9-6.2,3
			c-4.1,0.1-7.2-2.9-6.9-6.8c0.3-3.8,3.9-7.1,8-7.2c3-0.1,5.6,1.5,6.5,4.1l0,0.1l0.1,0c0.7,0,1.4,0,2-0.2l0.2,0l1.1-13.1l0-0.5
			l1-12.7c0,0,0.1,0,0.2,0c1,2.7,3.7,4.3,6.9,4.2c4.4-0.1,8.2-3.5,8.5-7.6c0.3-4-2.9-7.2-7.3-7.1c-2.5,0.1-4.8,1.2-6.5,3.1
			c-0.4,0.1-0.8,0.2-1.1,0.2l1.2-14.2l-18.3,0.5l-0.1,0.1c-0.2,0.5-0.3,1.1-0.3,1.6l0,0.1l0.1,0.1c1.4,0.7,2.2,1.9,2.1,3.2
			c-0.2,2.2-2.9,4.1-6.1,4.2c-3.2,0.1-5.6-1.6-5.4-3.9c0.1-1.4,1.2-2.6,2.9-3.4l0.1,0l0-0.1c0.3-0.6,0.6-1.1,0.7-1.5l0.1-0.2
			l-17.2,0.5l-0.4,0l-13.1,0.4c-0.1-0.4-0.1-0.8,0-1.3c1.7-0.9,2.7-2.2,2.8-3.6c0.2-2.4-2.4-4.3-5.8-4.2
			C47.8,10.1,44.8,12.1,44.6,14.6z"/>
		<path class="st12" d="M44.5,14.7c-0.1,1.5,0.8,2.8,2.4,3.6c0.2,0.4,0.3,0.8,0.4,1.2L26,20l-1.2,14.5l0.2,0c0.5,0,1-0.1,1.5-0.2
			l0.1,0l0.1-0.1c1.6-1.8,3.8-2.9,6.1-2.9c4-0.1,7.1,2.9,6.8,6.7c-0.3,3.8-3.9,7-7.9,7.1c-3,0.1-5.5-1.5-6.4-4.1l0-0.1l-0.1,0
			c-0.2,0-0.4,0-0.5,0l-0.2,0L23.1,54l0,0L22,67.2c-0.1,0-0.3,0-0.4,0.1c-0.4,0-0.7,0.1-1.1,0c-1-2.7-3.6-4.3-6.8-4.2
			c-4.3,0.1-8.1,3.5-8.4,7.5c-0.4,4.1,2.9,7.3,7.2,7.2c2.4-0.1,4.8-1.2,6.4-3.1c0.8-0.2,1.5-0.2,2.1-0.1c0.2,0,0.3,0.1,0.4,0.1
			l-1.2,13.9l22-0.5l0-0.2c-0.1-0.5-0.2-1-0.5-1.6l0-0.1l-0.1,0c-1.5-0.7-2.4-2-2.3-3.3c0.2-2.2,2.9-4.1,6.1-4.2
			c3.2-0.1,5.6,1.7,5.4,3.9c-0.1,1.3-1.1,2.6-2.7,3.4L48,86l0,0.1c-0.1,0.6-0.1,1.2,0.1,1.7l0,0.1l13.4-0.3l0.4,0l16.7-0.4
			c-0.1,0.4-0.3,0.7-0.6,1.2c-1.8,0.9-2.9,2.3-3,3.8c-0.2,2.5,2.4,4.4,5.9,4.3c3.4-0.1,6.4-2.2,6.6-4.6c0.1-1.4-0.7-2.7-2.3-3.6
			c0-0.4,0.1-0.9,0.2-1.3l18-0.4l1.1-14.2l-0.1-0.1c-0.8-0.4-1.8-0.4-3-0.1l-0.1,0l0,0.1c-1.6,1.8-3.8,2.9-6.2,3
			c-4.1,0.1-7.2-2.9-6.9-6.8c0.3-3.8,3.9-7,7.9-7.2c3-0.1,5.6,1.5,6.5,4.1l0,0.1l0.1,0c0.7,0,1.4,0,2-0.2l0.2,0l1-13.1l0-0.5l1-12.7
			c0,0,0.1,0,0.1,0c1,2.7,3.7,4.3,6.8,4.2c4.3-0.1,8.1-3.5,8.4-7.5c0.3-4-3-7.2-7.3-7.1c-2.5,0.1-4.8,1.2-6.4,3.1
			c-0.4,0.1-0.8,0.2-1.1,0.2l1.1-14.1l-18.2,0.5l-0.1,0.1c-0.2,0.5-0.3,1.1-0.3,1.6l0,0.1l0.1,0.1c1.4,0.7,2.2,1.9,2.1,3.2
			c-0.2,2.2-2.9,4.1-6.1,4.2c-3.2,0.1-5.6-1.7-5.4-3.9c0.1-1.3,1.2-2.6,2.8-3.4l0.1,0l0-0.1c0.3-0.6,0.5-1.1,0.7-1.5l0.1-0.2
			l-17.1,0.5l-0.4,0l-13,0.4c-0.1-0.4-0.1-0.8,0-1.3c1.6-0.9,2.7-2.2,2.8-3.6c0.2-2.4-2.4-4.3-5.8-4.2
			C47.6,10.2,44.7,12.3,44.5,14.7z"/>
		<path class="st13" d="M44.3,14.8c-0.1,1.5,0.8,2.8,2.4,3.6c0.2,0.4,0.3,0.8,0.4,1.2L26,20.1l-1.2,14.5l0.2,0c0.5,0,1-0.1,1.5-0.2
			l0.1,0l0-0.1c1.5-1.8,3.7-2.9,6.1-2.9c4-0.1,7.1,2.9,6.8,6.7c-0.3,3.8-3.8,7-7.8,7.1c-3,0.1-5.5-1.5-6.4-4.1l0-0.1L25,41
			c-0.2,0-0.4,0-0.5,0l-0.2,0l-1,13l0,0l-1,13.1c-0.1,0-0.3,0-0.4,0.1c-0.4,0-0.7,0.1-1.1,0c-1-2.7-3.6-4.3-6.7-4.2
			c-4.3,0.1-8,3.5-8.3,7.5c-0.3,4,2.9,7.2,7.1,7.1c2.4-0.1,4.8-1.2,6.4-3c0.8-0.2,1.5-0.2,2.1-0.1c0.2,0,0.3,0.1,0.4,0.1l-1.1,13.9
			L42.4,88l0-0.2c-0.1-0.5-0.2-1-0.5-1.6l0-0.1l-0.1,0c-1.5-0.7-2.4-2-2.3-3.3c0.2-2.2,2.9-4.1,6-4.2c3.2-0.1,5.6,1.7,5.4,3.9
			c-0.1,1.3-1.1,2.6-2.6,3.4l-0.1,0.1l0,0.1c-0.1,0.6-0.1,1.2,0.1,1.7l0,0.1l13.3-0.3l0.4,0l16.6-0.4c-0.1,0.3-0.3,0.7-0.5,1.2
			c-1.8,0.9-2.9,2.3-3,3.8c-0.2,2.5,2.4,4.4,5.8,4.3c3.4-0.1,6.3-2.2,6.5-4.6c0.1-1.4-0.7-2.7-2.3-3.5c0-0.4,0.1-0.9,0.2-1.3
			l17.9-0.4l1-14.2l-0.1-0.1c-0.8-0.4-1.8-0.4-3-0.1l-0.1,0l0,0.1c-1.5,1.8-3.8,2.9-6.1,2.9c-4.1,0.1-7.1-2.9-6.9-6.8
			c0.3-3.8,3.8-7,7.9-7.1c3-0.1,5.5,1.5,6.5,4.1l0,0.1l0.1,0c0.7,0,1.4,0,2-0.2l0.2,0l0.9-13l0-0.5l0.9-12.7c0,0,0.1,0,0.1,0
			c1,2.7,3.7,4.3,6.8,4.2c4.3-0.1,8-3.5,8.3-7.5c0.3-4-3-7.2-7.3-7.1c-2.4,0.1-4.8,1.2-6.4,3c-0.4,0.1-0.8,0.2-1.1,0.2l1-14.1
			l-18.1,0.5L90,18.6c-0.2,0.5-0.3,1.1-0.3,1.6l0,0.1l0.1,0.1c1.4,0.7,2.2,1.9,2.1,3.2c-0.2,2.2-2.9,4.1-6,4.2
			c-3.1,0.1-5.6-1.7-5.4-3.9c0.1-1.3,1.1-2.6,2.8-3.4l0.1,0l0-0.1c0.3-0.6,0.5-1.1,0.7-1.5l0.1-0.2l-17,0.4l-0.4,0l-13,0.3
			c-0.1-0.4-0.1-0.8,0-1.3c1.6-0.9,2.7-2.2,2.8-3.6c0.2-2.4-2.4-4.3-5.8-4.2C47.4,10.4,44.5,12.4,44.3,14.8z"/>
		<path class="st14" d="M44.2,15c-0.1,1.5,0.8,2.8,2.4,3.6c0.2,0.4,0.3,0.8,0.4,1.2l-21,0.5l-1.1,14.4l0.2,0c0.5,0,1-0.1,1.5-0.2
			l0.1,0l0-0.1c1.5-1.8,3.7-2.8,6-2.9c4-0.1,7,2.9,6.8,6.7c-0.3,3.8-3.8,7-7.8,7.1c-3,0.1-5.5-1.5-6.4-4.1l0-0.1l-0.1,0
			c-0.2,0-0.4,0-0.5,0l-0.2,0l-1,13l0,0l-1,13.1c-0.1,0-0.2,0-0.4,0.1c-0.4,0-0.7,0.1-1.1,0c-1-2.7-3.6-4.3-6.7-4.2
			C10,63.1,6.3,66.4,6,70.5c-0.3,4,2.9,7.2,7.1,7.1c2.4-0.1,4.7-1.2,6.3-3c0.8-0.2,1.5-0.2,2-0.1c0.2,0,0.3,0.1,0.4,0.1l-1,13.8
			L42.6,88l0-0.2c-0.1-0.5-0.2-1-0.5-1.6l0-0.1l-0.1,0c-1.5-0.7-2.4-2-2.3-3.3c0.2-2.2,2.8-4.1,6-4.2c3.1-0.1,5.5,1.7,5.4,3.9
			C51,83.8,50,85,48.5,85.8l-0.1,0.1l0,0.1c-0.1,0.6-0.1,1.2,0.1,1.7l0,0.1l13.3-0.3l0.4,0l16.4-0.4c-0.1,0.3-0.3,0.7-0.5,1.1
			c-1.8,0.9-2.9,2.3-3,3.8c-0.2,2.5,2.4,4.4,5.8,4.3c3.4-0.1,6.3-2.1,6.4-4.6c0.1-1.4-0.7-2.7-2.3-3.5c0-0.4,0.1-0.9,0.2-1.3
			l17.8-0.4l0.9-14.1l-0.1-0.1c-0.8-0.4-1.8-0.4-3-0.1l-0.1,0l0,0.1c-1.5,1.8-3.7,2.9-6,2.9c-4,0.1-7.1-2.9-6.8-6.8
			c0.3-3.8,3.7-7,7.8-7.1c3-0.1,5.5,1.5,6.5,4.1l0,0.1l0.1,0c0.7,0,1.4,0,2-0.1l0.2,0l0.9-13l0-0.5l0.8-12.6c0,0,0.1,0,0.1,0
			c1,2.6,3.7,4.3,6.8,4.2c4.3-0.1,7.9-3.5,8.2-7.5c0.3-4-3-7.2-7.2-7.1c-2.4,0.1-4.7,1.2-6.3,3c-0.4,0.1-0.8,0.2-1.1,0.2l0.9-14.1
			l-18,0.5l-0.1,0.1c-0.2,0.5-0.3,1.1-0.3,1.6l0,0.1l0.1,0.1c1.4,0.7,2.2,1.9,2.1,3.2c-0.2,2.2-2.8,4.1-5.9,4.2
			c-3.1,0.1-5.5-1.7-5.4-3.9c0.1-1.3,1.1-2.6,2.8-3.4l0.1,0l0-0.1c0.3-0.6,0.5-1.1,0.7-1.5l0.1-0.2L67,19.2l-0.4,0l-12.9,0.3
			c-0.1-0.4-0.1-0.8,0-1.3c1.6-0.9,2.6-2.2,2.7-3.6c0.2-2.4-2.4-4.3-5.8-4.2C47.2,10.5,44.4,12.5,44.2,15z"/>
		<path class="st15" d="M44.1,15.1c-0.1,1.5,0.8,2.8,2.4,3.6c0.2,0.4,0.3,0.8,0.4,1.2L26,20.3l-1,14.4l0.2,0c0.5,0,1-0.1,1.5-0.2
			l0.1,0l0-0.1c1.5-1.8,3.7-2.8,6-2.9c4-0.1,7,2.9,6.7,6.7c-0.3,3.8-3.7,6.9-7.7,7c-2.9,0.1-5.4-1.5-6.4-4.1l0-0.1l-0.1,0
			c-0.2,0-0.3,0-0.5,0l-0.2,0l-0.9,13l0,0l-0.9,13.1c-0.1,0-0.2,0-0.4,0.1c-0.4,0-0.7,0.1-1.1,0c-1-2.6-3.6-4.3-6.7-4.2
			c-4.2,0.1-7.9,3.4-8.1,7.5c-0.3,4,2.9,7.2,7.1,7.1c2.4-0.1,4.7-1.1,6.3-3c0.8-0.2,1.4-0.2,2-0.1c0.2,0,0.3,0.1,0.4,0.1l-0.9,13.8
			l21.6-0.5l0-0.2c-0.1-0.5-0.2-1-0.5-1.6l0-0.1l-0.1,0c-1.5-0.7-2.4-2-2.3-3.3c0.1-2.2,2.8-4.1,5.9-4.2c3.1-0.1,5.5,1.7,5.4,3.9
			c-0.1,1.3-1,2.5-2.6,3.3l-0.1,0.1l0,0.1c-0.1,0.6-0.1,1.2,0.1,1.7l0,0.1l13.2-0.3l0.4,0l16.3-0.4c-0.1,0.3-0.3,0.7-0.5,1.1
			c-1.7,0.9-2.8,2.3-2.9,3.8c-0.2,2.5,2.4,4.4,5.8,4.3c3.4-0.1,6.2-2.1,6.4-4.6c0.1-1.4-0.8-2.7-2.3-3.5c0-0.4,0.1-0.9,0.2-1.2
			l17.7-0.4l0.9-14.1l-0.1-0.1c-0.8-0.4-1.8-0.4-2.9-0.1l-0.1,0l0,0.1c-1.5,1.8-3.7,2.9-6,2.9c-4,0.1-7.1-2.9-6.8-6.8
			c0.2-3.8,3.7-7,7.7-7.1c2.9-0.1,5.5,1.6,6.4,4.1l0,0.1l0.1,0c0.7,0.1,1.4,0,2-0.1l0.2,0l0.8-13l0-0.5l0.8-12.6c0,0,0.1,0,0.1,0
			c1.1,2.6,3.7,4.3,6.8,4.2c4.2-0.1,7.9-3.4,8.1-7.5c0.2-4-3-7.2-7.2-7.1c-2.4,0.1-4.7,1.2-6.3,3c-0.4,0.1-0.8,0.1-1.1,0.2l0.9-14.1
			l-17.9,0.4l-0.1,0.1c-0.2,0.5-0.3,1.1-0.3,1.6l0,0.1l0.1,0.1c1.4,0.7,2.2,1.9,2.1,3.2c-0.1,2.2-2.8,4.1-5.9,4.1
			c-3.1,0.1-5.5-1.7-5.4-3.9c0.1-1.3,1.1-2.6,2.7-3.4l0.1,0l0-0.1c0.3-0.6,0.5-1.1,0.7-1.5l0.1-0.2l-16.8,0.4l-0.4,0l-12.8,0.3
			c-0.1-0.4-0.1-0.8-0.1-1.3c1.6-0.9,2.6-2.2,2.7-3.6c0.2-2.4-2.4-4.3-5.7-4.2C47.1,10.6,44.2,12.7,44.1,15.1z"/>
		<path class="st16" d="M43.9,15.2c-0.1,1.5,0.8,2.8,2.4,3.6c0.2,0.4,0.3,0.8,0.4,1.2L26,20.4l-0.9,14.4l0.2,0c0.5,0,1-0.1,1.5-0.2
			l0.1,0l0-0.1c1.5-1.8,3.6-2.8,5.9-2.9c3.9-0.1,7,2.9,6.7,6.7c-0.2,3.8-3.6,6.9-7.6,7c-2.9,0.1-5.4-1.5-6.4-4.1l0-0.1l-0.1,0
			c-0.2,0-0.3,0-0.5,0l-0.2,0l-0.8,12.9l0,0L23,67.1c-0.1,0-0.2,0-0.4,0.1c-0.4,0-0.7,0.1-1.1,0c-1-2.6-3.6-4.3-6.7-4.2
			c-4.2,0.1-7.8,3.4-8.1,7.4c-0.3,4,2.9,7.2,7.1,7.1c2.4,0,4.6-1.1,6.2-3c0.8-0.2,1.4-0.2,2-0.1c0.2,0,0.3,0.1,0.4,0.1l-0.9,13.7
			l21.4-0.4l0-0.2c-0.1-0.5-0.2-1-0.5-1.6l0-0.1l-0.1,0c-1.5-0.7-2.4-2-2.3-3.3c0.1-2.2,2.8-4.1,5.9-4.1c3.1-0.1,5.5,1.7,5.4,3.9
			c-0.1,1.3-1,2.5-2.5,3.3l-0.1,0.1l0,0.1c-0.1,0.6,0,1.2,0.1,1.7l0,0.1l13.1-0.3l0.4,0l16.2-0.3c-0.1,0.3-0.3,0.7-0.5,1.1
			c-1.7,0.9-2.8,2.3-2.9,3.7c-0.1,2.4,2.4,4.4,5.8,4.3c3.3-0.1,6.2-2.1,6.3-4.6c0.1-1.4-0.8-2.7-2.3-3.5c0-0.4,0.1-0.9,0.2-1.2
			l17.5-0.4l0.8-14l-0.1-0.1c-0.8-0.4-1.8-0.4-2.9-0.1l-0.1,0l0,0.1c-1.5,1.8-3.6,2.8-5.9,2.9c-4,0.1-7-2.9-6.8-6.7
			c0.2-3.8,3.6-7,7.6-7c2.9-0.1,5.4,1.6,6.4,4.1l0,0.1l0.1,0c0.7,0.1,1.4,0,1.9-0.1l0.2,0l0.7-12.9l0-0.5l0.7-12.6c0,0,0.1,0,0.1,0
			c1.1,2.6,3.7,4.3,6.7,4.2c4.2-0.1,7.8-3.4,8-7.4c0.2-4-3-7.2-7.2-7.1c-2.4,0.1-4.7,1.1-6.2,3c-0.4,0.1-0.7,0.1-1.1,0.2l0.8-14
			L88.8,19l-0.1,0.1c-0.2,0.5-0.3,1.1-0.3,1.6l0,0.1l0.1,0.1c1.4,0.7,2.2,1.9,2.1,3.2c-0.1,2.2-2.7,4.1-5.8,4.1
			c-3.1,0.1-5.5-1.7-5.4-3.9c0.1-1.3,1.1-2.6,2.7-3.4l0.1,0l0-0.1c0.3-0.6,0.5-1.1,0.7-1.5l0.1-0.2l-16.7,0.4l-0.4,0l-12.7,0.3
			c-0.1-0.4-0.1-0.8-0.1-1.3c1.6-0.9,2.6-2.2,2.7-3.6c0.1-2.4-2.4-4.3-5.7-4.2C46.9,10.8,44.1,12.8,43.9,15.2z"/>
		<path class="st17" d="M43.8,15.3c-0.1,1.5,0.8,2.8,2.4,3.6c0.2,0.4,0.3,0.8,0.4,1.2L26,20.5l-0.8,14.3l0.2,0
			c0.5,0,0.9-0.1,1.5-0.2l0.1,0l0-0.1c1.5-1.8,3.6-2.8,5.8-2.9c3.9-0.1,6.9,2.9,6.7,6.7c-0.2,3.8-3.6,6.9-7.5,7
			c-2.9,0.1-5.4-1.5-6.3-4.1l0-0.1l-0.1,0c-0.2,0-0.3,0-0.5,0l-0.2,0L24,54.1l0,0l-0.7,13c-0.1,0-0.2,0-0.4,0.1
			c-0.4,0-0.7,0.1-1.1,0c-1-2.6-3.6-4.3-6.7-4.2c-4.2,0.1-7.7,3.4-8,7.4c-0.2,4,3,7.2,7.1,7.1c2.4,0,4.6-1.1,6.2-3
			c0.8-0.2,1.4-0.2,2-0.1c0.2,0,0.3,0.1,0.4,0.1l-0.8,13.7l21.3-0.4l0-0.2c-0.1-0.5-0.2-1-0.5-1.5l0-0.1l-0.1,0
			c-1.5-0.7-2.4-1.9-2.3-3.3c0.1-2.2,2.7-4.1,5.8-4.1c3.1-0.1,5.5,1.7,5.3,3.9c-0.1,1.3-1,2.5-2.5,3.3l-0.1,0.1l0,0.1
			c-0.1,0.6,0,1.2,0.1,1.7l0,0.1l13-0.3l0.4,0l16.1-0.3c-0.1,0.3-0.3,0.7-0.5,1.1c-1.7,0.9-2.8,2.2-2.9,3.7
			c-0.1,2.4,2.5,4.4,5.8,4.3c3.3-0.1,6.1-2.1,6.2-4.5c0.1-1.4-0.8-2.7-2.3-3.5c0-0.4,0.1-0.9,0.2-1.2l17.4-0.3l0.7-14l-0.1-0.1
			c-0.8-0.4-1.8-0.4-2.9-0.1l-0.1,0l0,0.1c-1.5,1.8-3.6,2.8-5.9,2.9c-3.9,0.1-7-2.9-6.8-6.7c0.2-3.8,3.6-6.9,7.5-7
			c2.9-0.1,5.4,1.6,6.4,4.1l0,0.1l0.1,0c0.7,0.1,1.3,0,1.9-0.1l0.2,0l0.7-12.9l0-0.4l0.6-12.5c0,0,0.1,0,0.1,0
			c1.1,2.6,3.7,4.3,6.7,4.2c4.2-0.1,7.7-3.4,7.9-7.4c0.2-4-3-7.2-7.2-7.1c-2.4,0.1-4.6,1.1-6.2,3c-0.4,0.1-0.7,0.1-1.1,0.2l0.7-14
			l-17.6,0.4l-0.1,0.1c-0.2,0.5-0.3,1.1-0.3,1.6l0,0.1l0.1,0.1c1.4,0.7,2.2,1.9,2.2,3.2c-0.1,2.2-2.7,4-5.8,4.1
			c-3.1,0.1-5.5-1.7-5.3-3.9c0.1-1.3,1.1-2.6,2.7-3.4l0.1,0l0-0.1c0.3-0.6,0.5-1.1,0.6-1.5l0.1-0.2l-16.6,0.4l-0.4,0l-12.6,0.3
			c-0.1-0.4-0.1-0.8-0.1-1.3c1.6-0.9,2.5-2.2,2.6-3.6c0.1-2.4-2.4-4.3-5.7-4.2C46.7,10.9,43.9,12.9,43.8,15.3z"/>
		<path class="st18" d="M43.6,15.5c-0.1,1.5,0.8,2.8,2.4,3.6c0.2,0.4,0.3,0.8,0.4,1.2L26,20.6l-0.7,14.3l0.2,0
			c0.5,0,0.9-0.1,1.5-0.2l0.1,0l0-0.1c1.4-1.8,3.6-2.8,5.8-2.8c3.9-0.1,6.9,2.9,6.7,6.7c-0.2,3.8-3.5,6.9-7.4,7
			c-2.9,0.1-5.4-1.5-6.3-4.1l0-0.1l-0.1,0c-0.2,0-0.3,0-0.5,0l-0.2,0l-0.7,12.9l0,0l-0.7,13c-0.1,0-0.2,0-0.4,0.1
			c-0.4,0-0.7,0.1-1.1,0c-1.1-2.6-3.6-4.3-6.6-4.2c-4.1,0.1-7.7,3.4-7.9,7.4c-0.2,4,3,7.2,7.1,7.1c2.4,0,4.6-1.1,6.1-3
			c0.7-0.2,1.4-0.2,2-0.1c0.2,0,0.3,0.1,0.4,0.1l-0.7,13.7l21.1-0.4l0-0.2c-0.1-0.5-0.2-1-0.5-1.5l0-0.1l-0.1,0
			c-1.5-0.7-2.4-1.9-2.3-3.3c0.1-2.2,2.7-4,5.7-4.1c3-0.1,5.4,1.7,5.3,3.9c-0.1,1.3-1,2.5-2.5,3.3l-0.1,0.1l0,0.1
			c-0.1,0.6,0,1.2,0.1,1.7l0,0.1l12.9-0.2l0.4,0l16-0.3c-0.1,0.3-0.3,0.7-0.5,1.1c-1.7,0.9-2.7,2.2-2.8,3.7
			c-0.1,2.4,2.5,4.4,5.7,4.3c3.3-0.1,6.1-2.1,6.2-4.5c0.1-1.4-0.8-2.7-2.3-3.5c0-0.4,0.1-0.9,0.2-1.2l17.3-0.3l0.7-13.9l-0.1-0.1
			c-0.8-0.4-1.7-0.4-2.9-0.1l-0.1,0l0,0.1c-1.4,1.8-3.6,2.8-5.8,2.9c-3.9,0.1-7-2.9-6.8-6.7c0.2-3.8,3.5-6.9,7.4-7
			c2.9-0.1,5.4,1.6,6.4,4.1l0,0.1l0.1,0c0.7,0.1,1.3,0,1.9-0.1l0.2,0l0.6-12.9l0-0.4l0.6-12.5c0,0,0.1,0,0.1,0
			c1.1,2.6,3.7,4.3,6.7,4.2c4.1-0.1,7.7-3.4,7.8-7.4c0.2-4-3-7.2-7.2-7.1c-2.4,0-4.6,1.1-6.1,3c-0.4,0.1-0.7,0.1-1.1,0.2l0.6-14
			L88,19.4L88,19.5c-0.2,0.5-0.3,1.1-0.3,1.6l0,0.1l0.1,0.1c1.4,0.7,2.2,1.9,2.2,3.2c-0.1,2.2-2.7,4-5.7,4.1c-3,0.1-5.4-1.7-5.3-3.9
			c0.1-1.3,1-2.6,2.6-3.4l0.1,0l0-0.1c0.3-0.6,0.5-1,0.6-1.5l0.1-0.2l-16.4,0.3l-0.4,0l-12.5,0.3c-0.1-0.4-0.1-0.8-0.1-1.3
			c1.6-0.9,2.5-2.2,2.6-3.6c0.1-2.4-2.4-4.3-5.7-4.2C46.5,11.1,43.8,13.1,43.6,15.5z"/>
		<path class="st19" d="M43.5,15.6c-0.1,1.5,0.8,2.8,2.4,3.6c0.2,0.4,0.3,0.8,0.4,1.2l-20.4,0.4L25.3,35l0.2,0
			c0.4,0,0.9-0.1,1.4-0.2l0.1,0l0-0.1c1.4-1.8,3.5-2.8,5.7-2.8c3.9-0.1,6.9,2.9,6.7,6.7c-0.2,3.7-3.5,6.9-7.3,6.9
			c-2.9,0.1-5.3-1.6-6.3-4.1l0-0.1l-0.1,0c-0.2,0-0.3,0-0.5,0l-0.2,0l-0.6,12.9l0,0l-0.6,13c-0.1,0-0.2,0-0.4,0.1
			c-0.4,0-0.7,0.1-1.1,0c-1.1-2.6-3.6-4.3-6.6-4.2c-4.1,0.1-7.6,3.4-7.8,7.3c-0.2,4,3,7.2,7.1,7.1c2.3,0,4.5-1.1,6-2.9
			c0.7-0.2,1.4-0.2,2-0.1c0.2,0,0.3,0.1,0.4,0.1l-0.6,13.6l21-0.4l0-0.2c-0.1-0.5-0.3-1-0.5-1.5l0-0.1l-0.1,0
			c-1.5-0.7-2.4-1.9-2.3-3.3c0.1-2.2,2.6-4,5.7-4.1c3-0.1,5.4,1.7,5.3,3.9c-0.1,1.3-1,2.5-2.4,3.3l-0.1,0.1l0,0.1
			c-0.1,0.6,0,1.2,0.1,1.7l0,0.1l12.8-0.2l0.4,0l15.9-0.3c-0.1,0.3-0.3,0.7-0.5,1.1c-1.7,0.8-2.7,2.2-2.8,3.7
			c-0.1,2.4,2.5,4.4,5.7,4.3c3.3-0.1,6-2.1,6.1-4.5c0.1-1.4-0.8-2.7-2.3-3.5c0-0.4,0.1-0.9,0.2-1.2l17.2-0.3l0.6-13.9l-0.1-0.1
			c-0.8-0.4-1.7-0.4-2.9-0.1l-0.1,0l0,0.1c-1.4,1.8-3.5,2.8-5.8,2.8c-3.9,0.1-6.9-2.9-6.8-6.7c0.2-3.8,3.5-6.9,7.3-7
			c2.9-0.1,5.4,1.6,6.3,4.1l0,0.1l0.1,0c0.7,0.1,1.3,0,1.9-0.1l0.2,0l0.5-12.8l0-0.4l0.5-12.5c0,0,0.1,0,0.1,0
			c1.1,2.6,3.7,4.3,6.7,4.2c4.1-0.1,7.6-3.4,7.8-7.3c0.2-4-3.1-7.1-7.2-7.1c-2.3,0-4.5,1.1-6,3c-0.4,0.1-0.7,0.1-1.1,0.2l0.6-13.9
			l-17.4,0.3l-0.1,0.1c-0.2,0.5-0.3,1.1-0.2,1.6l0,0.1l0.1,0.1c1.4,0.7,2.2,1.9,2.2,3.2c-0.1,2.2-2.6,4-5.7,4.1
			c-3,0.1-5.4-1.7-5.3-3.9c0.1-1.3,1-2.6,2.6-3.3l0.1,0l0-0.1c0.3-0.6,0.5-1,0.6-1.5l0.1-0.2L65.6,20l-0.4,0l-12.5,0.2
			c-0.1-0.4-0.1-0.8-0.1-1.3c1.5-0.9,2.5-2.2,2.6-3.6c0.1-2.4-2.4-4.3-5.7-4.2C46.3,11.2,43.6,13.2,43.5,15.6z"/>
		<path class="st20" d="M43.3,15.7c-0.1,1.5,0.9,2.8,2.4,3.6c0.2,0.4,0.3,0.8,0.4,1.2l-20.2,0.4l-0.6,14.3l0.2,0
			c0.4,0,0.9-0.1,1.4-0.2l0.1,0l0-0.1c1.4-1.8,3.5-2.8,5.7-2.8c3.8-0.1,6.9,2.9,6.7,6.7c-0.1,3.7-3.4,6.8-7.2,6.9
			c-2.8,0-5.3-1.6-6.3-4.1l0-0.1l-0.1,0c-0.2,0-0.3,0-0.5,0l-0.2,0l-0.5,12.8l0,0l-0.5,12.9c-0.1,0-0.2,0-0.4,0.1
			c-0.4,0-0.7,0.1-1.1,0c-1.1-2.6-3.6-4.3-6.6-4.2c-4.1,0.1-7.5,3.3-7.7,7.3c-0.2,4,3,7.1,7.1,7.1c2.3,0,4.5-1.1,6-2.9
			c0.7-0.2,1.4-0.2,2-0.1c0.2,0,0.3,0.1,0.4,0.1L23.2,88l20.8-0.3l0-0.2c-0.1-0.5-0.3-1-0.5-1.5l0-0.1l-0.1,0
			c-1.5-0.7-2.4-1.9-2.3-3.3c0.1-2.2,2.6-4,5.6-4.1c3,0,5.4,1.7,5.3,3.9c0,1.3-0.9,2.5-2.4,3.3l-0.1,0.1l0,0.1
			c-0.1,0.6,0,1.2,0.1,1.7l0,0.1l12.7-0.2l0.4,0l15.8-0.3c-0.1,0.3-0.3,0.7-0.5,1.1c-1.7,0.8-2.7,2.2-2.7,3.7
			c-0.1,2.4,2.5,4.3,5.7,4.3c3.2-0.1,5.9-2.1,6-4.5c0.1-1.4-0.8-2.7-2.3-3.5c0-0.4,0.1-0.9,0.2-1.2l17-0.3l0.5-13.9l-0.1-0.1
			c-0.8-0.4-1.7-0.4-2.8-0.1l-0.1,0l0,0.1c-1.4,1.8-3.5,2.8-5.7,2.8c-3.9,0.1-6.9-2.9-6.8-6.7c0.1-3.8,3.4-6.9,7.3-6.9
			c2.8,0,5.3,1.6,6.3,4.1l0,0.1l0.1,0c0.7,0.1,1.3,0,1.9-0.1l0.2,0l0.5-12.8l0-0.4l0.4-12.4c0,0,0.1,0,0.1,0
			c1.1,2.6,3.7,4.3,6.6,4.2c4.1-0.1,7.5-3.4,7.7-7.3c0.1-4-3.1-7.1-7.2-7.1c-2.3,0-4.5,1.1-6,2.9c-0.4,0.1-0.7,0.1-1.1,0.2l0.5-13.9
			l-17.3,0.3l-0.1,0.1c-0.2,0.5-0.2,1.1-0.2,1.6l0,0.1l0.1,0.1c1.4,0.7,2.2,1.9,2.2,3.2c-0.1,2.2-2.6,4-5.6,4.1
			c-3,0.1-5.4-1.7-5.3-3.9c0-1.3,1-2.6,2.6-3.3l0.1,0l0-0.1c0.3-0.6,0.5-1,0.6-1.5l0.1-0.2l-16.2,0.3l-0.4,0l-12.4,0.2
			c-0.1-0.4-0.1-0.8-0.1-1.3c1.5-0.8,2.5-2.2,2.5-3.5c0.1-2.4-2.5-4.3-5.7-4.2C46.1,11.3,43.4,13.3,43.3,15.7z"/>
		<path class="st21" d="M43.2,15.9c0,1.5,0.9,2.8,2.4,3.6c0.2,0.4,0.3,0.8,0.4,1.2l-20.1,0.3l-0.5,14.2l0.2,0c0.4,0,0.9-0.1,1.4-0.2
			l0.1,0l0-0.1c1.4-1.7,3.4-2.8,5.6-2.8c3.8-0.1,6.8,2.9,6.7,6.7c-0.1,3.7-3.3,6.8-7.2,6.9c-2.8,0-5.3-1.6-6.3-4.1l0-0.1l-0.1,0
			c-0.2,0-0.3,0-0.5,0l-0.2,0l-0.4,12.8l0,0L24.3,67c-0.1,0-0.2,0-0.4,0.1c-0.3,0-0.7,0.1-1.1,0c-1.1-2.6-3.6-4.3-6.6-4.2
			c-4,0.1-7.5,3.3-7.6,7.3c-0.1,4,3,7.1,7.1,7.1c2.3,0,4.5-1.1,5.9-2.9c0.7-0.2,1.4-0.2,2-0.1c0.2,0,0.3,0.1,0.4,0.1L23.6,88
			l20.7-0.3l0-0.2c-0.1-0.5-0.3-1-0.5-1.5l0-0.1l-0.1,0c-1.5-0.7-2.4-1.9-2.3-3.3c0.1-2.2,2.6-4,5.5-4.1c3,0,5.4,1.7,5.3,3.9
			c0,1.3-0.9,2.5-2.4,3.3l-0.1,0.1l0,0.1c-0.1,0.6,0,1.2,0.1,1.7l0,0.1l12.6-0.2l0.4,0l15.6-0.2c-0.1,0.3-0.3,0.7-0.5,1.1
			c-1.6,0.8-2.7,2.2-2.7,3.7c-0.1,2.4,2.5,4.3,5.7,4.3c3.2,0,5.9-2,6-4.5c0-1.4-0.8-2.7-2.3-3.5c0-0.4,0.1-0.9,0.2-1.2l16.9-0.3
			l0.4-13.8l-0.1-0.1c-0.8-0.4-1.7-0.4-2.8-0.1l-0.1,0l0,0.1c-1.4,1.8-3.4,2.8-5.7,2.8c-3.8,0.1-6.9-2.9-6.7-6.7
			c0.1-3.7,3.3-6.8,7.2-6.9c2.8,0,5.3,1.6,6.3,4.1l0,0.1l0.1,0c0.7,0.1,1.3,0,1.9-0.1l0.2,0l0.4-12.8l0-0.4l0.4-12.4
			c0,0,0.1,0,0.1,0c1.1,2.6,3.7,4.3,6.6,4.2c4.1-0.1,7.5-3.3,7.6-7.3c0.1-4-3.1-7.1-7.1-7.1c-2.3,0-4.5,1.1-5.9,2.9
			c-0.4,0.1-0.7,0.1-1,0.2l0.4-13.9l-17.2,0.3l0,0.1c-0.2,0.5-0.2,1-0.2,1.6l0,0.1l0.1,0.1c1.4,0.7,2.2,1.9,2.2,3.2
			c-0.1,2.2-2.6,4-5.5,4c-3,0-5.3-1.7-5.3-3.9c0-1.3,1-2.6,2.5-3.3l0.1,0l0-0.1c0.3-0.6,0.5-1,0.6-1.5l0.1-0.2l-16.1,0.3l-0.4,0
			l-12.3,0.2c-0.1-0.4-0.1-0.8-0.1-1.3c1.5-0.8,2.4-2.2,2.5-3.5c0.1-2.4-2.5-4.3-5.7-4.2C45.9,11.5,43.3,13.5,43.2,15.9z"/>
		<path class="st22" d="M43.1,16c0,1.4,0.9,2.8,2.5,3.6c0.2,0.4,0.3,0.8,0.4,1.2l-20,0.3l-0.4,14.2l0.2,0c0.4,0,0.9-0.1,1.4-0.2
			l0.1,0l0-0.1c1.4-1.7,3.4-2.8,5.6-2.8c3.8-0.1,6.8,2.9,6.7,6.7c-0.1,3.7-3.3,6.8-7.1,6.9c-2.8,0-5.2-1.6-6.2-4.1l0-0.1l-0.1,0
			c-0.2,0-0.3,0-0.5,0l-0.2,0L25,54.2l0,0L24.6,67c-0.1,0-0.2,0-0.4,0.1c-0.3,0-0.7,0-1.1,0c-1.1-2.6-3.6-4.3-6.6-4.2
			c-4,0.1-7.4,3.3-7.5,7.3c-0.1,3.9,3.1,7.1,7.1,7.1c2.3,0,4.4-1.1,5.9-2.9c0.7-0.2,1.4-0.2,1.9-0.1c0.2,0,0.3,0.1,0.4,0.1L24,87.9
			l20.5-0.3l0-0.2c-0.1-0.4-0.3-1-0.5-1.5l0-0.1l-0.1,0c-1.5-0.7-2.3-1.9-2.3-3.3c0.1-2.2,2.5-4,5.5-4c3,0,5.3,1.7,5.3,3.9
			c0,1.3-0.9,2.5-2.3,3.2l-0.1,0.1l0,0.1c-0.1,0.6,0,1.2,0.1,1.7l0,0.1l12.5-0.2l0.4,0l15.5-0.2c-0.1,0.3-0.3,0.7-0.5,1.1
			c-1.6,0.8-2.6,2.2-2.7,3.6c-0.1,2.4,2.5,4.3,5.7,4.3c3.2,0,5.8-2,5.9-4.4c0-1.4-0.8-2.7-2.3-3.5c0-0.4,0-0.9,0.2-1.2l16.8-0.2
			l0.4-13.8l-0.1-0.1c-0.8-0.4-1.7-0.4-2.8-0.1l-0.1,0l0,0.1c-1.4,1.7-3.4,2.8-5.6,2.8c-3.8,0.1-6.8-2.9-6.7-6.7
			c0.1-3.7,3.3-6.8,7.1-6.9c2.8,0,5.3,1.6,6.3,4.1l0,0.1l0.1,0c0.7,0.1,1.3,0,1.9-0.1l0.2,0l0.3-12.7l0-0.4l0.3-12.4
			c0,0,0.1,0,0.1,0c1.1,2.6,3.7,4.3,6.6,4.2c4-0.1,7.4-3.3,7.5-7.3c0.1-3.9-3.1-7.1-7.1-7c-2.3,0-4.4,1.1-5.9,2.9
			c-0.4,0.1-0.7,0.1-1,0.2l0.4-13.8l-17,0.3l0,0.1c-0.2,0.5-0.2,1-0.2,1.6l0,0.1l0.1,0.1c1.4,0.7,2.2,1.9,2.2,3.2
			c-0.1,2.2-2.5,4-5.5,4c-3,0-5.3-1.7-5.3-3.9c0-1.3,1-2.6,2.5-3.3l0.1,0l0-0.1c0.3-0.6,0.5-1,0.6-1.5l0.1-0.2l-16,0.2l-0.4,0
			l-12.2,0.2c-0.1-0.4-0.1-0.8-0.1-1.3c1.5-0.8,2.4-2.1,2.4-3.5c0.1-2.4-2.5-4.3-5.6-4.2C45.8,11.6,43.1,13.6,43.1,16z"/>
		<path class="st23" d="M42.9,16.1c0,1.4,0.9,2.8,2.5,3.6c0.2,0.4,0.3,0.8,0.4,1.2l-19.8,0.3l-0.3,14.2l0.2,0c0.4,0,0.9-0.1,1.4-0.2
			l0.1,0l0-0.1c1.3-1.7,3.4-2.8,5.5-2.8c3.8,0,6.8,2.9,6.7,6.6c-0.1,3.7-3.2,6.8-7,6.8c-2.8,0-5.2-1.6-6.2-4.1l0-0.1l-0.1,0
			c-0.2,0-0.3,0-0.5,0l-0.2,0l-0.3,12.7l0,0L24.9,67c-0.1,0-0.2,0-0.4,0.1c-0.3,0-0.7,0-1.1,0c-1.1-2.6-3.6-4.3-6.5-4.2
			c-4,0.1-7.3,3.3-7.4,7.2c-0.1,3.9,3.1,7.1,7.1,7.1c2.3,0,4.4-1.1,5.8-2.9c0.7-0.2,1.4-0.2,1.9-0.1c0.1,0,0.3,0.1,0.4,0.1
			l-0.3,13.5l20.4-0.3l-0.1-0.2c-0.1-0.4-0.3-1-0.5-1.5l0-0.1l-0.1,0c-1.5-0.7-2.3-1.9-2.3-3.3c0-2.2,2.5-4,5.4-4
			c2.9,0,5.3,1.7,5.2,3.9c0,1.3-0.9,2.5-2.3,3.2l-0.1,0.1l0,0.1c0,0.6,0,1.2,0.2,1.7l0,0.1l12.4-0.2l0.4,0l15.4-0.2
			c-0.1,0.3-0.3,0.7-0.4,1.1c-1.6,0.8-2.6,2.2-2.6,3.6c-0.1,2.4,2.5,4.3,5.6,4.3c3.2,0,5.8-2,5.8-4.4c0-1.4-0.8-2.7-2.3-3.5
			c0-0.4,0-0.9,0.1-1.2l16.7-0.2l0.3-13.7l-0.1-0.1c-0.8-0.4-1.7-0.4-2.8-0.1l-0.1,0l0,0.1c-1.4,1.7-3.4,2.8-5.5,2.8
			c-3.8,0-6.8-2.9-6.7-6.7c0.1-3.7,3.2-6.8,7-6.8c2.8,0,5.2,1.6,6.3,4.1l0,0.1l0.1,0c0.7,0.1,1.3,0,1.8-0.1l0.2,0l0.3-12.7l0-0.4
			l0.3-12.3c0,0,0.1,0,0.1,0c1.1,2.6,3.7,4.3,6.6,4.2c4-0.1,7.3-3.3,7.4-7.2c0.1-3.9-3.1-7.1-7.1-7c-2.3,0-4.4,1.1-5.8,2.9
			c-0.4,0.1-0.7,0.1-1,0.1l0.3-13.8L86,20.3l0,0.1c-0.2,0.5-0.2,1-0.2,1.6l0,0.1l0.1,0.1c1.4,0.7,2.2,1.9,2.2,3.2c0,2.2-2.5,4-5.4,4
			c-2.9,0-5.3-1.7-5.2-3.9c0-1.3,0.9-2.6,2.4-3.3l0.1,0l0-0.1c0.3-0.6,0.5-1,0.6-1.5l0.1-0.2l-15.9,0.2l-0.4,0l-12.1,0.2
			c-0.1-0.4-0.1-0.8-0.1-1.3c1.5-0.8,2.4-2.1,2.4-3.5c0.1-2.4-2.5-4.3-5.6-4.2C45.6,11.8,43,13.7,42.9,16.1z"/>
		<path class="st24" d="M42.8,16.2c0,1.4,0.9,2.8,2.5,3.5c0.2,0.4,0.3,0.8,0.4,1.1l-19.7,0.2l-0.2,14.1l0.2,0c0.4,0,0.9-0.1,1.4-0.2
			l0.1,0l0-0.1c1.3-1.7,3.3-2.7,5.5-2.8c3.7,0,6.7,2.9,6.7,6.6c-0.1,3.7-3.2,6.8-6.9,6.8c-2.8,0-5.2-1.6-6.2-4.1l0-0.1l-0.1,0
			c-0.2,0-0.3,0-0.5,0l-0.2,0l-0.2,12.7l0,0L25.1,67c-0.1,0-0.2,0-0.4,0.1c-0.3,0-0.7,0-1.1,0c-1.1-2.6-3.6-4.3-6.5-4.2
			c-4,0-7.2,3.3-7.3,7.2c-0.1,3.9,3.1,7.1,7.1,7c2.3,0,4.4-1.1,5.8-2.9c0.7-0.2,1.4-0.2,1.9-0.1c0.1,0,0.3,0.1,0.4,0.1l-0.2,13.4
			L45,87.5L45,87.3c-0.1-0.4-0.3-1-0.5-1.5l0-0.1l-0.1,0c-1.5-0.7-2.3-1.9-2.3-3.2c0-2.2,2.4-4,5.4-4c2.9,0,5.3,1.7,5.2,3.9
			c0,1.3-0.9,2.5-2.3,3.2l-0.1,0.1l0,0.1c0,0.6,0,1.2,0.2,1.6l0,0.1l12.4-0.1l0.4,0l15.3-0.2c-0.1,0.3-0.3,0.7-0.4,1.1
			c-1.6,0.8-2.6,2.2-2.6,3.6c0,2.4,2.5,4.3,5.6,4.3c3.1,0,5.7-2,5.8-4.4c0-1.4-0.8-2.7-2.3-3.5c0-0.4,0-0.8,0.1-1.2l16.5-0.2
			l0.2-13.7l-0.1-0.1c-0.8-0.4-1.7-0.4-2.8-0.1l-0.1,0l0,0.1c-1.3,1.7-3.3,2.7-5.5,2.8c-3.8,0-6.8-2.9-6.7-6.7
			c0.1-3.7,3.2-6.8,6.9-6.8c2.8,0,5.2,1.6,6.2,4.1l0,0.1l0.1,0c0.7,0.1,1.3,0,1.8-0.1l0.2,0l0.2-12.7l0-0.4L102,41c0,0,0.1,0,0.1,0
			c1.1,2.6,3.7,4.3,6.5,4.2c4,0,7.2-3.3,7.3-7.2c0.1-3.9-3.1-7.1-7.1-7c-2.3,0-4.4,1.1-5.8,2.9c-0.4,0.1-0.7,0.1-1,0.1l0.2-13.8
			l-16.8,0.2l0,0.1c-0.2,0.5-0.2,1-0.2,1.6l0,0.1l0.1,0.1c1.4,0.7,2.2,1.9,2.2,3.2c0,2.2-2.4,4-5.4,4c-2.9,0-5.3-1.7-5.2-3.9
			c0-1.3,0.9-2.5,2.4-3.3l0.1,0l0-0.1c0.3-0.5,0.4-1,0.6-1.5l0.1-0.2l-15.8,0.2l-0.4,0l-12,0.1c-0.1-0.4-0.1-0.8-0.1-1.3
			c1.5-0.8,2.4-2.1,2.4-3.5c0-2.4-2.5-4.3-5.6-4.2C45.4,11.9,42.8,13.9,42.8,16.2z"/>
		<path class="st25" d="M42.6,16.4c0,1.4,0.9,2.8,2.5,3.5c0.2,0.4,0.3,0.8,0.4,1.1l-19.6,0.2l-0.2,14.1l0.2,0c0.4,0,0.9-0.1,1.4-0.2
			l0.1,0l0-0.1c1.3-1.7,3.3-2.7,5.4-2.8c3.7,0,6.7,2.9,6.7,6.6c0,3.7-3.1,6.7-6.8,6.8c-2.7,0-5.2-1.6-6.2-4.1l0-0.1l-0.1,0
			c-0.2,0-0.3,0-0.5,0l-0.2,0l-0.1,12.7l0,0L25.4,67c-0.1,0-0.2,0-0.4,0.1c-0.3,0-0.7,0-1,0c-1.1-2.6-3.6-4.2-6.5-4.2
			c-3.9,0-7.2,3.3-7.2,7.2c0,3.9,3.1,7.1,7.1,7c2.2,0,4.3-1.1,5.7-2.9c0.7-0.2,1.3-0.2,1.9-0.1c0.1,0,0.3,0.1,0.4,0.1l-0.2,13.4
			l20.1-0.2l-0.1-0.2c-0.1-0.4-0.3-1-0.5-1.5l0-0.1l-0.1,0c-1.5-0.7-2.3-1.9-2.3-3.2c0-2.2,2.4-3.9,5.3-4c2.9,0,5.2,1.7,5.2,3.9
			c0,1.3-0.8,2.5-2.2,3.2l-0.1,0.1l0,0.1c0,0.6,0,1.2,0.2,1.6l0,0.1L63,87.3l0.4,0l15.2-0.2c-0.1,0.3-0.2,0.7-0.4,1.1
			c-1.6,0.8-2.5,2.2-2.5,3.6c0,2.4,2.5,4.3,5.6,4.3c3.1,0,5.7-2,5.7-4.4c0-1.4-0.8-2.7-2.3-3.5c0-0.4,0-0.8,0.1-1.2l16.4-0.2
			l0.1-13.7l-0.1-0.1c-0.8-0.4-1.7-0.4-2.7-0.1l-0.1,0l0,0.1c-1.3,1.7-3.3,2.7-5.4,2.8c-3.7,0-6.7-2.9-6.7-6.7
			c0-3.7,3.1-6.8,6.8-6.8c2.7,0,5.2,1.6,6.2,4.1l0,0.1l0.1,0c0.7,0.1,1.3,0,1.8-0.1l0.2,0l0.1-12.6l0-0.4l0.1-12.3c0,0,0.1,0,0.1,0
			c1.1,2.6,3.7,4.2,6.5,4.2c3.9,0,7.2-3.3,7.2-7.2c0-3.9-3.1-7.1-7.1-7c-2.2,0-4.3,1.1-5.7,2.9c-0.4,0.1-0.7,0.1-1,0.1l0.1-13.7
			l-16.7,0.2l0,0.1c-0.2,0.5-0.2,1-0.2,1.6l0,0.1l0.1,0.1c1.4,0.7,2.2,1.9,2.2,3.2c0,2.2-2.4,3.9-5.3,4c-2.9,0-5.2-1.7-5.2-3.9
			c0-1.3,0.9-2.5,2.4-3.3l0.1,0l0-0.1c0.3-0.5,0.4-1,0.5-1.5l0.1-0.2l-15.7,0.2l-0.4,0l-12,0.1c-0.1-0.4-0.1-0.8-0.1-1.3
			c1.5-0.8,2.3-2.1,2.3-3.5c0-2.4-2.5-4.3-5.6-4.2C45.2,12,42.7,14,42.6,16.4z"/>
		<path class="st26" d="M42.5,16.5c0,1.4,0.9,2.8,2.5,3.5c0.2,0.4,0.3,0.8,0.4,1.1l-19.4,0.2l-0.1,14.1l0.2,0c0.4,0,0.9,0,1.4-0.2
			l0.1,0l0-0.1c1.3-1.7,3.3-2.7,5.4-2.7c3.7,0,6.7,2.9,6.7,6.6c0,3.7-3,6.7-6.7,6.8c-2.7,0-5.1-1.6-6.2-4.1l0-0.1l-0.1,0
			c-0.2,0-0.3,0-0.5,0l-0.2,0l-0.1,12.6l0,0L25.7,67c-0.1,0-0.2,0-0.4,0.1c-0.3,0-0.7,0-1,0c-1.1-2.6-3.6-4.2-6.5-4.2
			c-3.9,0-7.1,3.2-7.1,7.1c0,3.9,3.1,7.1,7,7c2.2,0,4.3-1.1,5.6-2.8c0.7-0.2,1.3-0.2,1.9-0.1c0.1,0,0.3,0.1,0.4,0.1l-0.1,13.4
			l20-0.2l-0.1-0.2c-0.1-0.4-0.3-1-0.5-1.5l0-0.1l-0.1,0c-1.5-0.7-2.3-1.9-2.3-3.2c0-2.2,2.4-3.9,5.2-4c2.9,0,5.2,1.7,5.2,3.9
			c0,1.3-0.8,2.4-2.2,3.2l-0.1,0.1l0,0.1c0,0.6,0,1.2,0.2,1.6l0,0.1l12.2-0.1l0.4,0l15.1-0.1c-0.1,0.3-0.2,0.7-0.4,1.1
			c-1.6,0.8-2.5,2.2-2.5,3.6c0,2.4,2.5,4.3,5.6,4.3c3.1,0,5.6-2,5.6-4.4c0-1.4-0.8-2.6-2.3-3.4c0-0.4,0-0.8,0.1-1.2L101,87l0.1-13.6
			l-0.1-0.1c-0.8-0.4-1.7-0.4-2.7-0.1l-0.1,0l0,0.1c-1.3,1.7-3.3,2.7-5.4,2.7C89,76,86,73,86.1,69.3c0-3.7,3-6.7,6.7-6.8
			c2.7,0,5.2,1.6,6.2,4.1l0,0.1l0.1,0c0.7,0.1,1.3,0,1.8-0.1l0.2,0l0.1-12.6l0-0.4l0.1-12.3c0,0,0.1,0,0.1,0
			c1.1,2.6,3.6,4.2,6.5,4.2c3.9,0,7.1-3.2,7.1-7.1c0-3.9-3.1-7.1-7.1-7c-2.2,0-4.3,1.1-5.6,2.8c-0.3,0.1-0.7,0.1-1,0.1l0.1-13.7
			l-16.6,0.2l0,0.1c-0.1,0.5-0.2,1-0.2,1.6l0,0.1l0.1,0.1c1.4,0.7,2.2,1.9,2.2,3.2c0,2.2-2.4,3.9-5.2,4c-2.9,0-5.2-1.7-5.2-3.9
			c0-1.3,0.9-2.5,2.3-3.3l0.1,0l0-0.1c0.3-0.5,0.4-1,0.5-1.5l0.1-0.2L63.8,21l-0.4,0l-11.9,0.1c-0.1-0.4-0.1-0.8-0.1-1.3
			c1.4-0.8,2.3-2.1,2.3-3.5c0-2.4-2.5-4.3-5.6-4.2C45,12.2,42.5,14.1,42.5,16.5z"/>
		<path class="st27" d="M42.3,16.6c0,1.4,0.9,2.8,2.5,3.5c0.2,0.4,0.3,0.8,0.4,1.1l-19.3,0.2l0,14l0.2,0c0.4,0,0.9,0,1.4-0.2l0.1,0
			l0-0.1c1.3-1.7,3.2-2.7,5.3-2.7c3.7,0,6.7,2.9,6.7,6.6c0,3.7-3,6.7-6.6,6.7c-2.7,0-5.1-1.6-6.2-4.1l0-0.1l-0.1,0
			c-0.2,0-0.3,0-0.5,0l-0.2,0l0,12.6l0,0l0,12.7c-0.1,0-0.2,0-0.4,0.1c-0.3,0-0.7,0-1,0c-1.1-2.6-3.6-4.2-6.5-4.2
			c-3.9,0-7,3.2-7,7.1c0,3.9,3.2,7,7,7c2.2,0,4.2-1,5.6-2.8c0.7-0.2,1.3-0.2,1.9,0c0.1,0,0.3,0.1,0.4,0.1l0,13.3l19.8-0.2l-0.1-0.2
			c-0.1-0.4-0.3-1-0.5-1.5l0-0.1l-0.1,0c-1.4-0.7-2.3-1.9-2.3-3.2c0-2.2,2.3-3.9,5.2-3.9c2.9,0,5.2,1.7,5.2,3.9
			c0,1.2-0.8,2.4-2.2,3.2l-0.1,0.1l0,0.1c0,0.6,0,1.2,0.2,1.6l0,0.1l12.1-0.1l0.4,0l15-0.1c-0.1,0.3-0.2,0.7-0.4,1.1
			c-1.5,0.8-2.5,2.1-2.5,3.6c0,2.4,2.5,4.3,5.6,4.2c3.1,0,5.6-2,5.6-4.3c0-1.4-0.9-2.6-2.3-3.4c0-0.4,0-0.8,0.1-1.2l16.2-0.1l0-13.6
			l-0.1-0.1C100,73,99,72.9,98,73.2l-0.1,0l0,0.1C96.6,75,94.7,76,92.6,76c-3.7,0-6.7-2.9-6.7-6.6c0-3.7,3-6.7,6.7-6.7
			c2.7,0,5.1,1.6,6.2,4.1l0,0.1l0.1,0c0.7,0.1,1.3,0,1.8-0.1l0.1,0l0-12.6l0-0.4l0-12.2c0,0,0.1,0,0.1,0c1.1,2.6,3.6,4.2,6.5,4.2
			c3.9,0,7-3.2,7-7.1c0-3.9-3.2-7-7-7c-2.2,0-4.2,1-5.6,2.8c-0.3,0.1-0.7,0.1-1,0.1l0-13.7L84.3,21l0,0.1c-0.1,0.5-0.2,1-0.2,1.6
			l0,0.1l0.1,0.1c1.4,0.7,2.2,1.9,2.2,3.1c0,2.2-2.3,3.9-5.2,3.9c-2.9,0-5.2-1.7-5.2-3.9c0-1.3,0.9-2.5,2.3-3.3l0.1,0l0-0.1
			c0.2-0.5,0.4-1,0.5-1.5L79,21l-15.5,0.1l-0.4,0l-11.8,0.1c-0.1-0.4-0.1-0.8-0.1-1.3c1.4-0.8,2.3-2.1,2.3-3.5
			c0-2.4-2.5-4.3-5.6-4.2C44.8,12.3,42.3,14.3,42.3,16.6z"/>
		<path class="st28" d="M42.2,16.8c0,1.4,0.9,2.7,2.5,3.5c0.2,0.4,0.3,0.8,0.4,1.1l-19.2,0.1l0.1,14l0.2,0c0.4,0,0.9,0,1.4-0.2
			l0.1,0l0-0.1c1.3-1.7,3.2-2.7,5.3-2.7c3.6,0,6.6,2.9,6.6,6.6c0,3.7-2.9,6.7-6.6,6.7c-2.7,0-5.1-1.6-6.1-4.1l0-0.1l-0.1,0
			c-0.2,0-0.3,0-0.5,0l-0.2,0l0.1,12.6l0,0L26.2,67c-0.1,0-0.2,0-0.4,0.1c-0.3,0-0.7,0-1,0c-1.1-2.6-3.6-4.2-6.4-4.2
			c-3.9,0-7,3.2-6.9,7.1c0,3.9,3.2,7,7,7c2.2,0,4.2-1,5.5-2.8c0.7-0.2,1.3-0.2,1.9,0c0.1,0,0.3,0.1,0.4,0.1l0.1,13.3L46,87.4
			L46,87.1c-0.1-0.4-0.3-1-0.5-1.5l0-0.1l-0.1,0c-1.4-0.7-2.3-1.9-2.3-3.2c0-2.1,2.3-3.9,5.1-3.9c2.8,0,5.2,1.7,5.2,3.9
			c0,1.2-0.8,2.4-2.1,3.2l-0.1,0.1l0,0.1c0,0.6,0,1.2,0.2,1.6l0,0.1l12-0.1l0.4,0l14.9-0.1c-0.1,0.3-0.2,0.7-0.4,1.1
			c-1.5,0.8-2.4,2.1-2.4,3.6c0,2.4,2.5,4.3,5.6,4.2c3,0,5.5-2,5.5-4.3c0-1.4-0.9-2.6-2.3-3.4c0-0.4,0-0.8,0.1-1.2l16-0.1l-0.1-13.5
			l-0.1-0.1c-0.7-0.4-1.6-0.4-2.7-0.2l-0.1,0l0,0.1c-1.3,1.7-3.2,2.7-5.3,2.7c-3.6,0-6.6-2.9-6.6-6.6c0-3.7,2.9-6.7,6.6-6.7
			c2.7,0,5.1,1.6,6.1,4.1l0,0.1l0.1,0c0.7,0.1,1.2,0,1.8-0.1l0.1,0l-0.1-12.5l0-0.4l-0.1-12.2c0,0,0.1,0,0.1,0
			c1.1,2.6,3.6,4.2,6.4,4.2c3.9,0,7-3.2,6.9-7.1c0-3.9-3.2-7-7-7c-2.2,0-4.2,1-5.5,2.8c-0.3,0.1-0.7,0.1-1,0.1l-0.1-13.6l-16.3,0.1
			l0,0.1c-0.1,0.5-0.2,1-0.2,1.6l0,0.1l0.1,0.1c1.3,0.7,2.2,1.9,2.2,3.1c0,2.1-2.3,3.9-5.1,3.9c-2.8,0-5.2-1.7-5.2-3.9
			c0-1.3,0.8-2.5,2.3-3.3l0.1,0l0-0.1c0.2-0.5,0.4-1,0.5-1.5l0.1-0.2l-15.3,0.1l-0.4,0l-11.7,0.1C51.1,21,51,20.6,51,20.1
			c1.4-0.8,2.2-2.1,2.2-3.5c0-2.4-2.5-4.3-5.6-4.2S42.2,14.4,42.2,16.8z"/>
	</g>
	<g class="st29">
		<g>
			<path class="st30" d="M61.5,34.2c-1-2.5-3.5-4.2-6.3-4.2c-3.8,0-6.8,3.1-6.8,6.9c0,3.8,3.1,6.8,6.8,6.8c2.2,0,4.2-1.1,5.4-2.8
				c0.8-0.2,1.7-0.3,2.5,0.1l0.1,13.2l19.2-0.1c-0.1-0.4-0.3-0.9-0.5-1.5c-1.5-0.7-2.4-2-2.4-3.4c0-2.3,2.4-4.1,5.3-4.1
				c2.9,0,5.3,1.8,5.4,4.1c0,1.4-0.9,2.6-2.2,3.3c0,0.5,0,1,0.2,1.6l12-0.1l-0.1-12.6c0.1,0,0.3,0,0.5,0c1,2.5,3.5,4.2,6.3,4.2
				c3.8,0,6.8-3.1,6.8-6.9c0-3.8-3.1-6.8-6.8-6.8c-2.2,0-4.2,1.1-5.4,2.8c-0.4,0.1-0.9,0.2-1.3,0.2L100,21.3l-16,0.1
				c-0.2,0.5-0.2,1-0.1,1.5c1.4,0.7,2.3,1.9,2.3,3.3c0,2.3-2.4,4.1-5.3,4.1c-2.9,0-5.3-1.8-5.4-4c0-1.4,0.9-2.7,2.4-3.4
				c0.3-0.6,0.4-1,0.5-1.4l-15.3,0.1l0.1,12.6C62.7,34.2,62.2,34.3,61.5,34.2z"/>
			<g>
				<path class="st31" d="M113.9,38.8c0,3.9-3.1,7.1-6.9,7.1c-2.8,0-5.3-1.6-6.4-4.2c0,0-0.1,0-0.1,0l0.1,12.6l-12.4,0.1l0-0.1
					c-0.2-0.5-0.2-1.1-0.2-1.6l0-0.1l0.1,0c1.3-0.7,2.1-1.9,2.1-3.2c0-2.1-2.3-3.9-5.2-3.9c-2.8,0-5.1,1.8-5.1,3.9
					c0,1.3,0.9,2.5,2.3,3.2l0.1,0l0,0.1c0.3,0.6,0.4,1.1,0.5,1.5l0.1,0.2l-19.7,0.1L63,41.2c-0.6-0.3-1.4-0.3-2.2-0.1
					c-1.3,1.8-3.3,2.8-5.5,2.8c-3.9,0-7-3.1-7-7c0-3.9,3.1-7.1,6.9-7.1c2.8,0,5.3,1.6,6.4,4.2c0.5,0,1,0,1.4-0.1l-0.1-12.7l15.7-0.1
					l-0.1,0.2c-0.1,0.4-0.3,0.9-0.5,1.5l0,0.1L78,23c-1.4,0.7-2.3,2-2.3,3.3c0,2.1,2.3,3.9,5.2,3.9c2.8,0,5.1-1.8,5.1-3.9
					c0-1.2-0.8-2.4-2.2-3.1L83.7,23l0-0.1c0-0.5,0-1.1,0.2-1.6l0-0.1l16.3-0.1l0.1,13.6c0.3,0,0.6-0.1,1-0.1
					c1.3-1.8,3.3-2.8,5.5-2.8C110.7,31.7,113.9,34.9,113.9,38.8z M100,53.9L100,41.2l0.2,0c0.1,0,0.3,0,0.5,0l0.1,0l0,0.1
					c1,2.5,3.4,4.1,6.1,4.1c3.6,0,6.6-3,6.6-6.7c0-3.7-3-6.6-6.6-6.6c-2.1,0-4,1-5.3,2.7l0,0.1l-0.1,0c-0.5,0.1-0.9,0.2-1.4,0.2
					l-0.2,0l-0.1-13.6l-15.7,0.1c-0.1,0.4-0.1,0.8-0.1,1.2c1.4,0.8,2.3,2.1,2.3,3.4c0,2.4-2.5,4.3-5.5,4.3c-3,0-5.5-1.9-5.6-4.2
					c0-1.4,0.9-2.8,2.4-3.6c0.2-0.4,0.3-0.8,0.4-1.1l-14.9,0.1l0.1,12.6l-0.1,0c-0.5,0.1-1.1,0.2-1.8,0.1l-0.1,0l0-0.1
					c-1-2.5-3.4-4.1-6.1-4.1c-3.6,0-6.6,3-6.6,6.7c0,3.7,3,6.6,6.6,6.6c2.1,0,4-1,5.3-2.7l0-0.1l0.1,0c1-0.3,1.9-0.2,2.7,0.2
					l0.1,0.1l0.1,13.1L82.3,54c-0.1-0.3-0.2-0.7-0.4-1.1c-1.5-0.8-2.5-2.1-2.5-3.5c0-2.4,2.5-4.3,5.5-4.3c3,0,5.5,1.9,5.6,4.2
					c0,1.4-0.8,2.6-2.2,3.5c0,0.4,0,0.9,0.1,1.2L100,53.9z"/>
				<path class="st32" d="M114.5,38.8c0,4.2-3.4,7.7-7.6,7.7c-2.3,0-4.5-1-5.9-2.8l0.1,11.2L87.6,55l-0.2-0.6
					c-0.2-0.5-0.3-1.2-0.2-1.9l0-0.3l0.3-0.3c1.2-0.7,1.9-1.7,1.9-2.7c0-1.8-2-3.3-4.5-3.2c-2.5,0-4.5,1.5-4.5,3.3
					c0,1.1,0.7,2.1,2,2.7l0.2,0.1l0.2,0.2c0.3,0.7,0.5,1.2,0.6,1.7l0.2,1l-21.1,0.1l-0.1-13.5c-0.4-0.1-0.8-0.1-1.3,0
					c-1.4,1.8-3.6,2.9-5.9,2.9c-4.2,0-7.6-3.4-7.7-7.6c0-4.2,3.4-7.7,7.6-7.7c2.9,0,5.6,1.6,6.9,4.2c0.1,0,0.2,0,0.4,0l-0.1-12.7
					l17.1-0.1l-0.2,1c-0.1,0.5-0.3,1-0.6,1.6l-0.1,0.2l-0.2,0.2c-1.3,0.7-2,1.7-2,2.7c0,1.8,2,3.3,4.5,3.2c2.5,0,4.5-1.5,4.5-3.3
					c0-1-0.7-2-1.8-2.6l-0.3-0.2L83.1,23c0-0.2,0-0.3,0-0.5c0-0.5,0.1-1,0.2-1.4l0.2-0.6l17.4-0.1l0.1,13.6c0,0,0,0,0,0
					c1.4-1.8,3.6-2.9,5.9-2.9C111,31.1,114.5,34.5,114.5,38.8z M99.4,53.3l-0.1-12.7l0.8,0c0.2,0,0.3,0,0.5,0l0.4,0l0.3,0.4
					c1,2.4,3.2,3.8,5.6,3.8c3.3,0,6-2.7,5.9-6.1c0-3.3-2.7-6-6-6c-1.9,0-3.6,0.9-4.8,2.5l-0.1,0.2l-0.3,0.1
					c-0.6,0.2-1.1,0.2-1.6,0.2l-0.8,0l-0.1-13.6l-14.5,0.1c0,0.1,0,0.1,0,0.2c1.4,0.9,2.3,2.3,2.3,3.8c0,2.7-2.7,4.9-6.1,4.9
					c-3.4,0-6.2-2.2-6.2-4.9c0-1.6,0.9-3.1,2.6-4c0,0,0,0,0,0l-13.3,0.1L64,34.8l-0.6,0.2c-0.6,0.1-1.2,0.2-2,0.1L60.9,35l-0.1-0.3
					c-1-2.4-3.2-3.8-5.6-3.8c-3.3,0-6,2.7-5.9,6.1c0,3.3,2.7,6,6,6c1.9,0,3.6-0.9,4.8-2.5l0.1-0.2l0.3-0.1c1.3-0.3,2.3-0.3,3.2,0.2
					l0.3,0.2L64,41l0.1,12.5l17.3-0.1c0,0,0,0,0-0.1c-1.6-0.9-2.6-2.4-2.6-4c0-2.7,2.7-4.9,6.1-4.9c3.4,0,6.2,2.2,6.2,4.9
					c0,1.5-0.8,2.9-2.2,3.8c0,0.1,0,0.2,0,0.3L99.4,53.3z"/>
			</g>
		</g>
		<g>
			<path class="st33" d="M88,52.5c1.4-0.8,2.2-2,2.2-3.3c0-2.3-2.4-4.1-5.4-4c-2.9,0-5.3,1.9-5.3,4.1c0,1.4,1,2.7,2.4,3.4
				c0.3,0.6,0.4,1.1,0.5,1.5l-19.2,0.1l0.1,13.6c0.4,0,0.9-0.1,1.3-0.2c1.2-1.7,3.2-2.8,5.4-2.8c3.8,0,6.8,3,6.8,6.8
				c0,3.8-3,6.9-6.8,6.9c-2.8,0-5.3-1.7-6.3-4.2c-0.2,0-0.3,0-0.5,0l0.1,12.6L78.8,87c-0.1,0.4-0.2,0.8-0.5,1.4
				c-1.4,0.7-2.4,2-2.4,3.4c0,2.3,2.4,4.1,5.4,4c3,0,5.3-1.9,5.3-4.1c0-1.4-0.9-2.6-2.3-3.3c0-0.5,0-1,0.1-1.5l16-0.1l-0.1-13.2
				c-0.8-0.4-1.7-0.4-2.6-0.1c-1.2,1.7-3.2,2.8-5.4,2.8c-3.8,0-6.8-3-6.8-6.8c0-3.8,3-6.9,6.8-6.9c2.8,0,5.3,1.7,6.3,4.2
				c0.7,0.1,1.3,0,1.7-0.1L100.2,54l-12,0.1C88,53.6,88,53.1,88,52.5z"/>
			<g>
				<path class="st31" d="M100.4,53.8l0.1,13l-0.1,0c-0.5,0.1-1.1,0.2-1.8,0.1l-0.1,0l0-0.1c-1-2.5-3.4-4.1-6.1-4.1
					c-3.6,0-6.6,3-6.6,6.7c0,3.7,3,6.6,6.6,6.6c2.1,0,4-1,5.3-2.7l0-0.1l0.1,0c1-0.3,1.9-0.2,2.7,0.2l0.1,0.1l0.1,13.5l-16,0.1
					c-0.1,0.4-0.1,0.8-0.1,1.2c1.4,0.8,2.3,2.1,2.3,3.4c0,2.4-2.5,4.3-5.5,4.3c-3,0-5.5-1.9-5.6-4.2c0-1.4,0.9-2.8,2.4-3.6
					c0.2-0.4,0.3-0.8,0.4-1.1l-15.2,0.1l-0.1-13l0.2,0c0.2,0,0.3,0,0.5,0l0.1,0l0,0.1c1,2.5,3.4,4.1,6.1,4.1c3.6,0,6.6-3,6.6-6.7
					c0-3.7-3-6.6-6.6-6.6c-2.1,0-4,1-5.3,2.7l0,0.1l-0.1,0c-0.5,0.1-0.9,0.2-1.4,0.2l-0.2,0l-0.1-14l19.2-0.1
					c-0.1-0.3-0.2-0.7-0.4-1.1c-1.5-0.8-2.5-2.1-2.5-3.5c0-2.4,2.5-4.3,5.5-4.3c3,0,5.5,1.9,5.6,4.2c0,1.4-0.8,2.6-2.2,3.5
					c0,0.4,0,0.9,0.1,1.2L100.4,53.8z M100.1,66.5l-0.1-12.3l-12,0.1l0-0.1c-0.2-0.5-0.2-1.1-0.2-1.6l0-0.1l0.1-0.1
					c1.3-0.7,2.1-1.9,2.1-3.2c0-2.1-2.3-3.9-5.2-3.9c-2.8,0-5.1,1.8-5.1,3.9c0,1.3,0.9,2.5,2.3,3.2l0.1,0l0,0.1
					c0.3,0.6,0.4,1.1,0.5,1.5l0.1,0.2l-19.3,0.1l0.1,13.3c0.3,0,0.6-0.1,1-0.1c1.3-1.8,3.3-2.8,5.5-2.8c3.9,0,7,3.1,7,7
					c0,3.9-3.1,7.1-6.9,7.1c-2.8,0-5.3-1.6-6.4-4.2c0,0-0.1,0-0.1,0l0.1,12.2L79,86.8L79,87c-0.1,0.4-0.3,0.9-0.5,1.5l0,0.1l-0.1,0
					c-1.4,0.7-2.3,1.9-2.3,3.3c0,2.1,2.3,3.9,5.2,3.9c2.8,0,5.1-1.8,5.1-3.9c0-1.2-0.8-2.4-2.2-3.1l-0.1,0l0-0.1
					c0-0.5,0-1.1,0.2-1.6l0-0.1l15.9-0.1l-0.1-12.9c-0.6-0.3-1.4-0.3-2.2-0.1c-1.3,1.8-3.3,2.8-5.5,2.8c-3.9,0-7-3.1-7-7
					c0-3.9,3.1-7.1,6.9-7.1c2.8,0,5.3,1.6,6.4,4.2C99.3,66.6,99.7,66.6,100.1,66.5z"/>
				<path class="st32" d="M101.1,53.2l0.1,14.1l-0.6,0.2c-0.6,0.1-1.3,0.2-2,0.1l-0.4,0l-0.3-0.4c-1-2.4-3.2-3.8-5.6-3.8
					c-3.3,0-6,2.7-5.9,6.1c0,3.3,2.7,6,6,6c1.9,0,3.6-0.9,4.8-2.5l0.1-0.2l0.2-0.1c1.3-0.3,2.3-0.3,3.2,0.2l0.3,0.2l0.1,0.4
					l0.1,14.2l-16.1,0.1c0,0.1,0,0.1,0,0.2c1.4,0.9,2.3,2.3,2.3,3.8c0,2.7-2.7,4.9-6.1,4.9c-3.4,0-6.2-2.2-6.2-4.9
					c0-1.6,0.9-3.1,2.6-4c0,0,0,0,0,0l-15,0.1l-0.1-14.3l0.8,0c0.2,0,0.3,0,0.5,0l0.4,0l0.3,0.4c1,2.4,3.2,3.8,5.6,3.8
					c3.3,0,6-2.7,5.9-6.1c0-3.3-2.7-6-6-6c-1.9,0-3.6,0.9-4.8,2.5l-0.1,0.2l-0.3,0.1c-0.6,0.2-1.1,0.2-1.6,0.2l-0.8,0l-0.1-15.2
					l18.9-0.1c0,0,0,0,0-0.1c-1.6-0.9-2.6-2.4-2.6-4c0-2.7,2.7-4.9,6.1-4.9c3.4,0,6.2,2.2,6.2,4.9c0,1.5-0.8,2.9-2.2,3.8
					c0,0.1,0,0.2,0,0.3L101.1,53.2z M99.5,66l-0.1-11.1l-11.8,0.1l-0.2-0.6c-0.2-0.5-0.3-1.2-0.2-1.9l0-0.3l0.3-0.3
					c1.2-0.7,1.9-1.7,1.9-2.7c0-1.8-2-3.3-4.5-3.2c-2.5,0-4.5,1.5-4.5,3.3c0,1.1,0.7,2.1,2,2.7l0.2,0.1l0.2,0.2
					c0.3,0.7,0.5,1.2,0.6,1.7l0.2,1l-19.5,0.1L64.2,67c0,0,0,0,0,0c1.4-1.8,3.6-2.9,5.9-2.9c4.2,0,7.6,3.4,7.7,7.6
					c0,4.2-3.4,7.7-7.6,7.7c-2.3,0-4.5-1-5.9-2.8l0.1,9.6l15.5-0.1l-0.2,1c-0.1,0.5-0.3,1-0.6,1.6l-0.1,0.2l-0.2,0.2
					c-1.3,0.7-2,1.7-2,2.7c0,1.8,2,3.3,4.5,3.2c2.5,0,4.5-1.5,4.5-3.3c0-1-0.7-2-1.8-2.6L83.6,89l-0.1-0.4c0-0.2,0-0.3,0-0.5
					c0-0.5,0.1-1,0.2-1.4l0.2-0.6L99.6,86l-0.1-11.8c-0.4-0.1-0.8-0.1-1.3,0c-1.4,1.8-3.6,2.9-5.9,2.9c-4.2,0-7.6-3.4-7.7-7.6
					c0-4.2,3.4-7.7,7.6-7.7c2.9,0,5.6,1.6,6.9,4.2C99.3,66,99.4,66,99.5,66z"/>
			</g>
		</g>
		<g>
			<path class="st34" d="M27.5,35.2c1.2-1.7,3.2-2.8,5.4-2.8c3.8,0,6.8,3,6.8,6.8c0,3.8-3,6.9-6.8,6.9c-2.8,0-5.3-1.7-6.3-4.2
				c-0.2,0-0.3,0-0.5,0l0.1,12.6l15.3-0.1c-0.1,0.4-0.2,0.8-0.5,1.4c-1.4,0.7-2.4,2-2.4,3.4c0,2.3,2.4,4.1,5.4,4
				c2.9,0,5.3-1.9,5.3-4.1c0-1.4-0.9-2.6-2.3-3.3c0-0.5,0-1,0.1-1.5l16-0.1l-0.1-13.2c-0.8-0.4-1.7-0.4-2.5-0.1
				c-1.2,1.7-3.2,2.8-5.4,2.8c-3.8,0-6.8-3-6.8-6.8c0-3.8,3-6.9,6.8-6.9c2.8,0,5.3,1.7,6.3,4.2c0.7,0.1,1.3,0,1.7-0.1l-0.1-12.6
				l-12,0.1c-0.2-0.5-0.2-1.1-0.2-1.6c1.4-0.7,2.2-2,2.2-3.3c0-2.3-2.4-4.1-5.4-4c-2.9,0-5.3,1.9-5.3,4.1c0,1.4,1,2.7,2.4,3.4
				c0.3,0.6,0.4,1.1,0.5,1.5l-19.2,0.1l0.1,13.6C26.6,35.4,27.1,35.3,27.5,35.2z"/>
			<g>
				<path class="st31" d="M63.3,21.3l0.1,13l-0.1,0c-0.5,0.1-1.1,0.2-1.8,0.1l-0.1,0l0-0.1c-1-2.5-3.4-4.1-6.1-4.1
					c-3.6,0-6.6,3-6.6,6.7c0,3.7,3,6.6,6.6,6.6c2.1,0,4-1,5.3-2.7l0-0.1l0.1,0c1-0.3,1.9-0.2,2.7,0.2l0.1,0.1l0.1,13.5l-16,0.1
					c-0.1,0.4-0.1,0.8-0.1,1.2c1.4,0.8,2.3,2.1,2.3,3.4c0,2.4-2.5,4.3-5.5,4.3c-3,0-5.5-1.9-5.6-4.2c0-1.4,0.9-2.8,2.4-3.6
					c0.2-0.4,0.3-0.8,0.4-1.1l-15.2,0.1l-0.1-13l0.2,0c0.2,0,0.3,0,0.5,0l0.1,0l0,0.1c1,2.5,3.4,4.1,6.1,4.1c3.6,0,6.6-3,6.6-6.7
					c0-3.7-3-6.6-6.6-6.6c-2.1,0-4,1-5.3,2.7l0,0.1l-0.1,0c-0.5,0.1-0.9,0.2-1.4,0.2l-0.2,0l-0.1-14l19.2-0.1
					c-0.1-0.3-0.2-0.7-0.4-1.1c-1.5-0.8-2.5-2.1-2.5-3.5c0-2.4,2.5-4.3,5.5-4.3s5.5,1.9,5.6,4.2c0,1.4-0.8,2.6-2.2,3.5
					c0,0.4,0,0.9,0.1,1.2L63.3,21.3z M63,34l-0.1-12.3l-12,0.1l0-0.1c-0.2-0.5-0.2-1.1-0.2-1.6l0-0.1l0.1,0c1.3-0.7,2.1-1.9,2.1-3.2
					c0-2.1-2.3-3.9-5.2-3.9s-5.1,1.8-5.1,3.9c0,1.3,0.9,2.5,2.3,3.2l0.1,0l0,0.1c0.3,0.6,0.4,1.1,0.5,1.5l0.1,0.2l-19.3,0.1
					l0.1,13.3c0.3,0,0.6-0.1,1-0.1c1.3-1.8,3.3-2.8,5.5-2.8c3.9,0,7,3.1,7,7c0,3.9-3.1,7.1-6.9,7.1c-2.8,0-5.3-1.6-6.4-4.2
					c0,0-0.1,0-0.1,0l0.1,12.2l15.3-0.1l-0.1,0.2c-0.1,0.4-0.3,0.9-0.5,1.5l0,0.1l-0.1,0c-1.4,0.7-2.3,1.9-2.3,3.3
					c0,2.1,2.3,3.9,5.2,3.9c2.8,0,5.1-1.8,5.1-3.9c0-1.2-0.8-2.4-2.2-3.1L47,56l0-0.1c0-0.5,0-1.1,0.2-1.6l0-0.1l15.9-0.1L63,41.2
					c-0.6-0.3-1.4-0.3-2.2-0.1c-1.3,1.8-3.3,2.8-5.5,2.8c-3.9,0-7-3.1-7-7c0-3.9,3.1-7.1,6.9-7.1c2.8,0,5.3,1.6,6.4,4.2
					C62.1,34.1,62.6,34.1,63,34z"/>
				<path class="st32" d="M63.9,20.7L64,34.8l-0.6,0.2c-0.6,0.1-1.2,0.2-2,0.1L60.9,35l-0.1-0.3c-1-2.4-3.2-3.8-5.6-3.8
					c-3.3,0-6,2.7-5.9,6.1c0,3.3,2.7,6,6,6c1.9,0,3.6-0.9,4.8-2.5l0.1-0.2l0.3-0.1c1.3-0.3,2.3-0.3,3.2,0.2l0.3,0.2L64,41l0.1,14.2
					L48,55.2c0,0.1,0,0.1,0,0.2c1.4,0.9,2.3,2.3,2.3,3.8c0,2.7-2.7,4.9-6.1,4.9c-3.4,0-6.2-2.2-6.2-4.9c0-1.6,0.9-3.1,2.6-4
					c0,0,0,0,0,0l-15,0.1l-0.1-14.3l0.8,0c0.2,0,0.3,0,0.5,0l0.4,0l0.3,0.4c1,2.4,3.2,3.8,5.6,3.8c3.3,0,6-2.7,5.9-6.1
					c0-3.3-2.7-6-6-6c-1.9,0-3.6,0.9-4.8,2.5L28,35.9L27.8,36c-0.6,0.2-1.1,0.2-1.6,0.2l-0.8,0l-0.1-15.2l18.9-0.1c0,0,0,0,0-0.1
					c-1.6-0.9-2.6-2.4-2.6-4c0-2.7,2.7-4.9,6.1-4.9c3.4,0,6.2,2.2,6.2,4.9c0,1.5-0.8,2.9-2.2,3.8c0,0.1,0,0.2,0,0.3L63.9,20.7z
					 M62.3,33.4l-0.1-11.1l-11.8,0.1l-0.2-0.6C50.1,21.3,50,20.6,50,20l0-0.4l0.3-0.3c1.2-0.7,1.9-1.7,1.9-2.7
					c0-1.8-2.1-3.3-4.5-3.2c-2.5,0-4.5,1.5-4.5,3.3c0,1.1,0.7,2.1,2,2.7l0.2,0.1l0.2,0.2c0.3,0.7,0.5,1.2,0.6,1.7l0.2,1l-19.4,0.1
					L27,34.5c0,0,0,0,0,0c1.4-1.8,3.6-2.9,5.9-2.9c4.2,0,7.6,3.4,7.7,7.6c0,4.2-3.4,7.7-7.6,7.7c-2.3,0-4.5-1-5.9-2.8l0.1,9.6
					l15.5-0.1l-0.2,1c-0.1,0.5-0.3,1-0.6,1.6l-0.1,0.2l-0.2,0.2c-1.3,0.7-2,1.7-2,2.7c0,1.8,2,3.3,4.5,3.2c2.5,0,4.5-1.5,4.5-3.3
					c0-1-0.7-2-1.8-2.6l-0.3-0.2l-0.1-0.4c0-0.2,0-0.3,0-0.5c0-0.5,0.1-1,0.2-1.4l0.2-0.6l15.8-0.1l-0.1-11.8
					c-0.4-0.1-0.8-0.1-1.3,0c-1.4,1.8-3.6,2.9-5.9,2.9c-4.2,0-7.6-3.4-7.7-7.6c0-4.2,3.4-7.7,7.6-7.7c2.9,0,5.6,1.6,6.8,4.2
					C62.1,33.4,62.2,33.4,62.3,33.4z"/>
			</g>
		</g>
		<g>
			<path class="st35" d="M38.7,59.2c0-1.4,0.9-2.7,2.4-3.4c0.3-0.6,0.4-1,0.5-1.4l-15.3,0.1l0.1,12.6c-0.2,0-0.3,0.1-0.5,0.1
				c-0.3,0-0.7,0.1-1.2,0c-1-2.5-3.5-4.2-6.3-4.2c-3.8,0-6.8,3.1-6.8,6.9c0,3.8,3.1,6.8,6.8,6.8c2.2,0,4.2-1.1,5.4-2.8
				c0.6-0.2,1.4-0.2,2-0.1c0.2,0,0.4,0.1,0.5,0.2l0.1,13.2l19.2-0.1c-0.1-0.4-0.3-0.9-0.5-1.5c-1.5-0.7-2.4-2-2.4-3.4
				c0-2.3,2.4-4.1,5.3-4.1s5.3,1.8,5.4,4.1c0,1.4-0.9,2.6-2.2,3.3c0,0.5,0,1,0.2,1.6l12-0.1l-0.1-12.6c0.1,0,0.3,0,0.5,0
				c1,2.5,3.5,4.2,6.3,4.2c3.8,0,6.8-3.1,6.8-6.9c0-3.8-3.1-6.8-6.8-6.8c-2.2,0-4.2,1.1-5.4,2.8c-0.4,0.1-0.9,0.2-1.3,0.2l-0.1-13.6
				l-16,0.1c-0.2,0.5-0.2,1-0.1,1.5c1.4,0.7,2.3,1.9,2.3,3.3c0,2.3-2.4,4.1-5.3,4.1C41.1,63.3,38.7,61.5,38.7,59.2z"/>
			<g>
				<path class="st31" d="M77.1,71.8c0,3.9-3.1,7.1-6.9,7.1c-2.8,0-5.3-1.6-6.4-4.2c0,0-0.1,0-0.1,0l0.1,12.6l-12.4,0.1l0-0.1
					c-0.2-0.5-0.2-1.1-0.2-1.6l0-0.1l0.1-0.1c1.3-0.7,2.1-1.9,2.1-3.2c0-2.1-2.3-3.9-5.2-3.9c-2.8,0-5.1,1.8-5.1,3.9
					c0,1.3,0.9,2.5,2.3,3.2l0.1,0l0,0.1c0.3,0.6,0.4,1.1,0.5,1.5l0.1,0.2l-19.7,0.1l-0.1-13.3c-0.1-0.1-0.2-0.1-0.4-0.1
					c-0.5-0.1-1.2-0.1-1.9,0c-1.3,1.8-3.3,2.8-5.5,2.8c-3.9,0-7-3.1-7-7c0-3.9,3.1-7.1,6.9-7.1c2.8,0,5.3,1.6,6.4,4.2
					c0.4,0,0.7,0,1,0c0.1,0,0.3,0,0.4-0.1l-0.1-12.7l15.7-0.1l-0.1,0.2c-0.1,0.4-0.3,0.9-0.5,1.5l0,0.1l-0.1,0
					c-1.4,0.7-2.3,1.9-2.3,3.3c0,2.1,2.3,3.9,5.2,3.9c2.8,0,5.1-1.8,5.1-3.9c0-1.2-0.8-2.4-2.2-3.1L47,56l0-0.1c0-0.5,0-1.1,0.2-1.6
					l0-0.1l16.3-0.1l0.1,13.6c0.3,0,0.6-0.1,1-0.1c1.3-1.8,3.3-2.8,5.5-2.8C73.9,64.7,77.1,67.9,77.1,71.8z M63.3,86.9l-0.1-12.6
					l0.2,0c0.2,0,0.3,0,0.5,0l0.1,0l0,0.1c1,2.5,3.4,4.1,6.1,4.1c3.6,0,6.6-3,6.6-6.7c0-3.7-3-6.6-6.6-6.6c-2.1,0-4,1-5.3,2.7l0,0.1
					l-0.1,0c-0.5,0.1-0.9,0.2-1.4,0.2l-0.2,0l-0.1-13.6l-15.7,0.1c-0.1,0.4-0.1,0.8-0.1,1.2c1.4,0.8,2.3,2.1,2.3,3.4
					c0,2.4-2.5,4.3-5.5,4.3c-3,0-5.5-1.9-5.6-4.2c0-1.4,0.9-2.8,2.4-3.6c0.2-0.4,0.3-0.8,0.4-1.1l-14.9,0.1l0.1,12.6l-0.1,0
					c-0.2,0-0.3,0.1-0.6,0.1c-0.4,0-0.8,0-1.2,0l-0.1,0l0-0.1c-1-2.5-3.4-4.1-6.1-4.1c-3.6,0-6.6,3-6.6,6.7c0,3.7,3,6.6,6.6,6.6
					c2.1,0,4-1,5.3-2.7l0-0.1l0.1,0c0.8-0.2,1.5-0.2,2.1-0.1c0.2,0.1,0.4,0.1,0.6,0.2l0.1,0.1l0.1,13.1L45.5,87
					c-0.1-0.3-0.2-0.7-0.4-1.1c-1.5-0.8-2.5-2.1-2.5-3.5c0-2.4,2.5-4.3,5.5-4.3c3,0,5.5,1.9,5.6,4.2c0,1.4-0.8,2.6-2.2,3.5
					c0,0.4,0,0.9,0.1,1.2L63.3,86.9z"/>
				<path class="st32" d="M77.7,71.8c0,4.2-3.4,7.7-7.6,7.7c-2.3,0-4.5-1-5.9-2.8l0.1,11.2L50.9,88l-0.2-0.6
					c-0.2-0.5-0.3-1.2-0.2-1.9l0-0.3l0.3-0.3c1.2-0.7,1.9-1.7,1.9-2.7c0-1.8-2-3.3-4.5-3.2c-2.5,0-4.5,1.5-4.5,3.3
					c0,1.1,0.7,2.1,2,2.7l0.2,0.1l0.2,0.2c0.3,0.7,0.5,1.2,0.6,1.7l0.2,1l-21.1,0.1l-0.1-13.5c-0.4-0.1-0.8-0.1-1.3,0
					c-1.4,1.8-3.6,2.9-5.9,2.9c-4.2,0-7.6-3.4-7.7-7.6c0-4.2,3.4-7.7,7.6-7.7c2.9,0,5.6,1.6,6.9,4.2c0.1,0,0.2,0,0.4,0l-0.1-12.7
					l17.1-0.1l-0.2,1c-0.1,0.5-0.3,1-0.6,1.6l-0.1,0.2l-0.2,0.2c-1.3,0.7-2,1.7-2,2.7c0,1.8,2.1,3.3,4.5,3.2c2.5,0,4.5-1.5,4.5-3.3
					c0-1-0.7-2-1.8-2.6l-0.3-0.2L46.3,56c0-0.2,0-0.3,0-0.5c0-0.5,0.1-1,0.2-1.4l0.2-0.6l17.4-0.1L64.2,67c0,0,0,0,0,0
					c1.4-1.8,3.6-2.9,5.9-2.9C74.3,64.1,77.7,67.5,77.7,71.8z M62.7,86.3l-0.1-12.7l0.8,0c0.2,0,0.3,0,0.5,0l0.4,0l0.3,0.4
					c1,2.4,3.2,3.8,5.6,3.8c3.3,0,6-2.7,5.9-6.1c0-3.3-2.7-6-6-6c-1.9,0-3.6,0.9-4.8,2.5l-0.1,0.2l-0.3,0.1
					c-0.6,0.2-1.1,0.2-1.6,0.2l-0.8,0l-0.1-13.6L48,55.2c0,0.1,0,0.1,0,0.2c1.4,0.9,2.3,2.3,2.3,3.8c0,2.7-2.7,4.9-6.1,4.9
					c-3.4,0-6.2-2.2-6.2-4.9c0-1.6,0.9-3.1,2.6-4c0,0,0,0,0,0l-13.3,0.1l0.1,12.4l-0.6,0.2C26.4,68,26.2,68,26,68
					c-0.4,0.1-0.9,0.1-1.3,0l-0.4,0L24,67.6c-1-2.4-3.2-3.8-5.6-3.8c-3.3,0-6,2.7-5.9,6.1c0,3.3,2.7,6,6,6c1.9,0,3.6-0.9,4.8-2.5
					l0.1-0.2l0.2-0.1c1-0.3,1.8-0.3,2.5-0.1c0.3,0.1,0.5,0.2,0.7,0.3l0.3,0.2l0.1,0.4l0.1,12.5l17.3-0.1c0,0,0,0,0-0.1
					c-1.6-0.9-2.6-2.4-2.6-4c0-2.7,2.7-4.9,6.1-4.9c3.4,0,6.2,2.2,6.2,4.9c0,1.5-0.8,2.9-2.2,3.8c0,0.1,0,0.2,0,0.3L62.7,86.3z"/>
			</g>
		</g>
	</g>
</g>
<g>
	<linearGradient id="SVGID_1_" gradientUnits="userSpaceOnUse" x1="60.7417" y1="54.9419" x2="113.1967" y2="54.9419">
		<stop  offset="0.2767" style="stop-color:#F27233"/>
		<stop  offset="0.7552" style="stop-color:#EF4F00"/>
	</linearGradient>
	<path class="st36" d="M106.9,46.1c2.3,2.8,4.4,5.7,6.3,8.8l0,0c-3.1,1.9-6,4-8.8,6.3c-2.2,1.8-2.2,3.9-0.2,4.7
		c1.5,0.6,2.9,1.2,3.6,1.5c2.5,1,3.4,4.4,2.1,7.7c-1.3,3.2-4.4,5-6.9,4c-1.1-0.4-3-2.5-4.8-5c-1.7-2.3-4.2-2.7-6-0.4
		c-1.8,2.4-3.6,4.8-5.2,7.4l0,0c-1.9-3.1-4-6-6.3-8.8c-1.8-2.2-3.9-2.2-4.7-0.2c-0.6,1.5-1.2,2.9-1.5,3.6c-1,2.5-4.4,3.4-7.7,2.1
		c-3.2-1.3-5-4.4-4-6.9c0.4-1.1,2.5-3,5-4.8c2.3-1.7,2.7-4.2,0.4-6c-2.4-1.8-4.8-3.6-7.4-5.2l0,0c1.6-2.6,3.3-5.1,5.2-7.4
		c1.8-2.2,4.3-1.9,6,0.4c1.8,2.5,3.7,4.5,4.8,5c2.5,1,5.5-0.8,6.9-4c1.3-3.2,0.4-6.7-2.1-7.7c-0.7-0.3-2-0.9-3.6-1.5
		c-2-0.8-2-2.9,0.2-4.7c2.8-2.3,5.7-4.4,8.8-6.3l0,0c2.6,1.6,5.1,3.3,7.4,5.2c2.2,1.7,1.9,4.3-0.4,6c-2.5,1.8-4.5,3.7-5,4.8
		c-1,2.5,0.8,5.5,4,6.9c3.2,1.3,6.7,0.4,7.7-2.1c0.3-0.7,0.9-2,1.5-3.6C103,43.9,105.1,43.9,106.9,46.1z"/>
	<linearGradient id="SVGID_2_" gradientUnits="userSpaceOnUse" x1="63.6539" y1="55.4263" x2="2.5391" y2="54.3869">
		<stop  offset="0.1719" style="stop-color:#FBB733"/>
		<stop  offset="1" style="stop-color:#FAA500"/>
	</linearGradient>
	<path class="st37" d="M14.6,63.7c-2.3-2.8-4.4-5.7-6.3-8.8l0,0c3.1-1.9,6-4,8.8-6.3c2.2-1.8,2.2-3.9,0.2-4.7
		c-1.5-0.6-2.9-1.2-3.6-1.5c-2.5-1-3.4-4.4-2.1-7.7c1.3-3.2,4.4-5,6.9-4c1.1,0.4,3,2.5,4.8,5c1.7,2.3,4.2,2.7,6,0.4
		c1.8-2.4,3.6-4.8,5.2-7.4l0,0c1.9,3.1,4,6,6.3,8.8c1.8,2.2,3.9,2.2,4.7,0.2c0.6-1.5,1.2-2.9,1.5-3.6c1-2.5,4.4-3.4,7.7-2.1
		c3.2,1.3,5,4.4,4,6.9c-0.4,1.1-2.5,3-5,4.8c-2.3,1.7-2.7,4.2-0.4,6c2.4,1.8,4.8,3.6,7.4,5.2l0,0c-1.6,2.6-3.3,5.1-5.2,7.4
		c-1.8,2.2-4.3,1.9-6-0.4c-1.8-2.5-3.7-4.5-4.8-5c-2.5-1-5.5,0.8-6.9,4c-1.3,3.2-0.4,6.7,2.1,7.7c0.7,0.3,2,0.9,3.6,1.5
		c2,0.8,2,2.9-0.2,4.7c-2.8,2.3-5.7,4.4-8.8,6.3l0,0c-2.6-1.6-5.1-3.3-7.4-5.2c-2.2-1.7-1.9-4.3,0.4-6c2.5-1.8,4.5-3.7,5-4.8
		c1-2.5-0.8-5.5-4-6.9c-3.2-1.3-6.7-0.4-7.7,2.1c-0.3,0.7-0.9,2-1.5,3.6C18.5,66,16.4,66,14.6,63.7z"/>
	<linearGradient id="SVGID_3_" gradientUnits="userSpaceOnUse" x1="60.5179" y1="62.2616" x2="60.9337" y2="2.8096">
		<stop  offset="0.5208" style="stop-color:#008E8A"/>
		<stop  offset="0.9667" style="stop-color:#007F73"/>
		<stop  offset="1" style="stop-color:#006B68"/>
	</linearGradient>
	<path class="st38" d="M51.9,8.7c2.8-2.3,5.7-4.4,8.8-6.3l0,0c1.9,3.1,4,6,6.3,8.8c1.8,2.2,3.9,2.2,4.7,0.2C72.4,10,73,8.7,73.3,8
		c1-2.5,4.4-3.4,7.7-2.1c3.2,1.3,5,4.4,4,6.9c-0.4,1.1-2.5,3-5,4.8c-2.3,1.7-2.7,4.2-0.4,6c2.4,1.8,4.8,3.6,7.4,5.2l0,0
		c-3.1,1.9-6,4-8.8,6.3c-2.2,1.8-2.2,3.9-0.2,4.7c1.5,0.6,2.9,1.2,3.6,1.5c2.5,1,3.4,4.4,2.1,7.7c-1.3,3.2-4.4,5-6.9,4
		c-1.1-0.4-3-2.5-4.8-5c-1.7-2.3-4.2-2.7-6-0.4c-1.8,2.4-3.6,4.8-5.2,7.4l0,0c-2.6-1.6-5.1-3.3-7.4-5.2c-2.2-1.8-1.9-4.3,0.4-6
		c2.5-1.8,4.5-3.7,5-4.8c1-2.5-0.8-5.5-4-6.9c-3.2-1.3-6.7-0.4-7.7,2.1c-0.3,0.7-0.9,2-1.5,3.6c-0.8,2-2.9,2-4.7-0.2
		c-2.3-2.8-4.4-5.7-6.3-8.8l0,0c1.6-2.6,3.3-5.1,5.2-7.4c1.7-2.2,4.3-1.9,6,0.4c1.8,2.5,3.7,4.5,4.8,5c2.5,1,5.5-0.8,6.9-4
		c1.3-3.2,0.4-6.7-2.1-7.7c-0.7-0.3-2-0.9-3.6-1.5C49.7,12.7,49.7,10.5,51.9,8.7z"/>
	<linearGradient id="SVGID_4_" gradientUnits="userSpaceOnUse" x1="59.4525" y1="54.4502" x2="62.1549" y2="109.9529">
		<stop  offset="0.1632" style="stop-color:#656567"/>
		<stop  offset="0.9688" style="stop-color:#3F3F41"/>
	</linearGradient>
	<path class="st39" d="M69.6,101.1c-2.8,2.3-5.7,4.4-8.8,6.3l0,0c-1.9-3.1-4-6-6.3-8.8c-1.8-2.2-3.9-2.2-4.7-0.2
		c-0.6,1.5-1.2,2.9-1.5,3.6c-1,2.5-4.4,3.4-7.7,2.1c-3.2-1.3-5-4.4-4-6.9c0.4-1.1,2.5-3,5-4.8c2.3-1.7,2.7-4.2,0.4-6
		c-2.4-1.8-4.8-3.6-7.4-5.2l0,0c3.1-1.9,6-4,8.8-6.3c2.2-1.8,2.2-3.9,0.2-4.7c-1.5-0.6-2.9-1.2-3.6-1.5c-2.5-1-3.4-4.4-2.1-7.7
		c1.3-3.2,4.4-5,6.9-4c1.1,0.4,3,2.5,4.8,5c1.7,2.3,4.2,2.7,6,0.4c1.8-2.4,3.6-4.8,5.2-7.4l0,0c2.6,1.6,5.1,3.3,7.4,5.2
		c2.2,1.8,1.9,4.3-0.4,6c-2.5,1.8-4.5,3.7-5,4.8c-1,2.5,0.8,5.5,4,6.9c3.2,1.3,6.7,0.4,7.7-2.1c0.3-0.7,0.9-2,1.5-3.6
		c0.8-2,2.9-2,4.7,0.2c2.3,2.8,4.4,5.7,6.3,8.8l0,0c-1.6,2.6-3.3,5.1-5.2,7.4c-1.7,2.2-4.3,1.9-6-0.4c-1.8-2.5-3.7-4.5-4.8-5
		c-2.5-1-5.5,0.8-6.9,4c-1.3,3.2-0.4,6.7,2.1,7.7c0.7,0.3,2,0.9,3.6,1.5C71.8,97.2,71.8,99.3,69.6,101.1z"/>
</g>
</svg>
